Newsreader72pt-Light.ufo
<glyph name="exclam" format="2">
  <advance width="487.5733333333333"/>
  <unicode hex="0021"/>
  <outline>
    <contour>
      <point x="327.2" y="1385.9866666666665" type="line" smooth="yes"/>
      <point x="327.2" y="1426.9066666666668"/>
      <point x="285.7733333333333" y="1447.4933333333333"/>
      <point x="244.97333333333333" y="1447.4933333333333" type="curve" smooth="yes"/>
      <point x="203.54666666666665" y="1447.4933333333333"/>
      <point x="161.74666666666667" y="1426.9066666666668"/>
      <point x="161.74666666666667" y="1385.9866666666665" type="curve" smooth="yes"/>
      <point x="161.74666666666667" y="1357.48" type="line" smooth="yes"/>
      <point x="161.74666666666667" y="1315.28"/>
      <point x="211.17333333333335" y="825.6400000000001"/>
      <point x="229.48" y="421.0133333333333" type="curve"/>
      <point x="256.84" y="421.0133333333333" type="line"/>
      <point x="275.1466666666667" y="825.6400000000001"/>
      <point x="327.20000000000005" y="1317.5333333333333"/>
      <point x="327.2" y="1357.48" type="curve" smooth="yes"/>
    </contour>
    <contour>
      <point x="244.97333333333333" y="193.82666666666668" type="curve" smooth="yes"/>
      <point x="184.28" y="193.82666666666668"/>
      <point x="139.06666666666666" y="147.23999999999998"/>
      <point x="139.06666666666666" y="88.66666666666667" type="curve" smooth="yes"/>
      <point x="139.06666666666666" y="30.093333333333334"/>
      <point x="184.28" y="-15.866666666666665"/>
      <point x="244.97333333333333" y="-15.866666666666665" type="curve" smooth="yes"/>
      <point x="305.6666666666667" y="-15.866666666666665"/>
      <point x="350.88" y="30.093333333333334"/>
      <point x="350.88" y="88.66666666666667" type="curve" smooth="yes"/>
      <point x="350.88" y="147.23999999999998"/>
      <point x="305.6666666666667" y="193.82666666666668"/>
    </contour>
  </outline>
</glyph>
<glyph name="ampersand" format="2">
  <advance width="1463.6266666666668"/>
  <unicode hex="0026"/>
  <outline>
    <contour>
      <point x="570.8399999999999" y="806.9466666666666" type="line"/>
      <point x="817.7066666666666" y="935.9733333333334"/>
      <point x="911.3466666666666" y="1048.12"/>
      <point x="911.3466666666666" y="1189.3733333333334" type="curve" smooth="yes"/>
      <point x="911.3466666666666" y="1328.4933333333333"/>
      <point x="806.7333333333332" y="1450.0"/>
      <point x="604.1466666666666" y="1450.0" type="curve" smooth="yes"/>
      <point x="392.97333333333336" y="1450.0"/>
      <point x="269.9866666666667" y="1320.6533333333334"/>
      <point x="269.9866666666667" y="1150.4266666666667" type="curve" smooth="yes"/>
      <point x="269.9866666666667" y="1047.0533333333335"/>
      <point x="305.61333333333334" y="954.9333333333333"/>
      <point x="457.9066666666667" y="784.3866666666667" type="curve" smooth="yes"/>
      <point x="1159.1866666666667" y="0.0" type="line"/>
      <point x="1459.7466666666667" y="0.0" type="line"/>
      <point x="1459.7466666666667" y="16.346666666666668" type="line"/>
      <point x="1258.6" y="52.70666666666666" type="line"/>
      <point x="537.0933333333334" y="854.7066666666667" type="line" smooth="yes"/>
      <point x="401.4533333333334" y="1005.3466666666667"/>
      <point x="363.2133333333333" y="1089.4666666666665"/>
      <point x="363.2133333333333" y="1196.9733333333334" type="curve" smooth="yes"/>
      <point x="363.2133333333333" y="1330.2533333333333"/>
      <point x="462.8666666666667" y="1417.28"/>
      <point x="600.0266666666666" y="1417.28" type="curve" smooth="yes"/>
      <point x="738.9466666666667" y="1417.28"/>
      <point x="816.9733333333334" y="1327.8799999999999"/>
      <point x="816.9733333333334" y="1185.88" type="curve" smooth="yes"/>
      <point x="816.9733333333334" y="1051.8533333333332"/>
      <point x="743.4399999999999" y="940.4666666666667"/>
      <point x="549.4933333333333" y="826.5733333333334" type="curve"/>
      <point x="486.73333333333335" y="797.5066666666667" type="line"/>
      <point x="223.05333333333334" y="671.0133333333333"/>
      <point x="115.76" y="537.16"/>
      <point x="115.76" y="338.24" type="curve" smooth="yes"/>
      <point x="115.76" y="129.74666666666667"/>
      <point x="264.7733333333333" y="-20.0"/>
      <point x="524.1066666666667" y="-20.0" type="curve" smooth="yes"/>
      <point x="719.9599999999999" y="-20.0"/>
      <point x="874.9333333333333" y="61.99999999999999"/>
      <point x="999.5466666666666" y="231.52" type="curve"/>
      <point x="1016.16" y="254.13333333333333" type="line"/>
      <point x="1105.7733333333335" y="383.64"/>
      <point x="1184.0133333333333" y="567.4"/>
      <point x="1246.6399999999999" y="824.4133333333333" type="curve"/>
      <point x="1414.76" y="853.7733333333333" type="line"/>
      <point x="1414.76" y="874.0" type="line"/>
      <point x="993.3333333333333" y="874.0" type="line"/>
      <point x="993.3333333333333" y="853.7733333333333" type="line"/>
      <point x="1165.5866666666666" y="824.4133333333333" type="line"/>
      <point x="1137.5733333333333" y="574.2666666666667"/>
      <point x="1074.0666666666666" y="401.8666666666667"/>
      <point x="995.1866666666667" y="285.46666666666664" type="curve"/>
      <point x="978.3333333333334" y="262.49333333333334" type="line"/>
      <point x="874.5466666666667" y="123.28"/>
      <point x="737.2533333333333" y="61.386666666666656"/>
      <point x="584.1066666666667" y="61.386666666666656" type="curve" smooth="yes"/>
      <point x="373.5866666666667" y="61.386666666666656"/>
      <point x="231.57333333333332" y="181.88"/>
      <point x="231.57333333333332" y="377.76" type="curve" smooth="yes"/>
      <point x="231.57333333333332" y="543.5733333333334"/>
      <point x="298.84" y="661.4533333333334"/>
      <point x="500.2" y="776.7466666666667" type="curve"/>
    </contour>
  </outline>
</glyph>
<glyph name="parenleft" format="2">
  <advance width="519.92"/>
  <unicode hex="0028"/>
  <outline>
    <contour>
      <point x="190.38666666666666" y="612.8666666666667" type="curve" smooth="yes"/>
      <point x="190.38666666666666" y="878.1866666666666"/>
      <point x="258.28" y="1116.4666666666665"/>
      <point x="462.4133333333333" y="1448.5733333333333" type="curve"/>
      <point x="440.1733333333333" y="1462.6933333333334" type="line"/>
      <point x="180.78666666666666" y="1099.92"/>
      <point x="84.13333333333333" y="908.2666666666667"/>
      <point x="84.13333333333333" y="612.8666666666667" type="curve" smooth="yes"/>
      <point x="84.13333333333333" y="317.46666666666664"/>
      <point x="180.78666666666666" y="125.44"/>
      <point x="440.1733333333333" y="-237.33333333333334" type="curve"/>
      <point x="462.4133333333333" y="-223.21333333333334" type="line"/>
      <point x="258.28" y="108.89333333333333"/>
      <point x="190.38666666666666" y="347.5466666666667"/>
    </contour>
  </outline>
</glyph>
<glyph name="parenright" format="2">
  <advance width="519.92"/>
  <unicode hex="0029"/>
  <outline>
    <contour>
      <point x="329.5333333333333" y="612.8666666666667" type="curve" smooth="yes"/>
      <point x="329.5333333333333" y="347.5466666666667"/>
      <point x="261.64" y="109.26666666666667"/>
      <point x="57.50666666666667" y="-222.84" type="curve"/>
      <point x="79.74666666666667" y="-236.96" type="line"/>
      <point x="339.1333333333333" y="125.81333333333333"/>
      <point x="435.7866666666667" y="317.46666666666664"/>
      <point x="435.7866666666667" y="612.8666666666667" type="curve" smooth="yes"/>
      <point x="435.7866666666667" y="908.2666666666667"/>
      <point x="339.1333333333333" y="1100.2933333333333"/>
      <point x="79.74666666666667" y="1463.0666666666666" type="curve"/>
      <point x="57.50666666666667" y="1448.9466666666667" type="line"/>
      <point x="261.64" y="1116.84"/>
      <point x="329.5333333333333" y="878.1866666666666"/>
    </contour>
  </outline>
</glyph>
<glyph name="zero" format="2">
  <advance width="1200.0"/>
  <unicode hex="0030"/>
  <outline>
    <contour>
      <point x="603.3733333333333" y="14.093333333333332" type="curve" smooth="yes"/>
      <point x="367.84512820512816" y="14.093333333333332"/>
      <point x="224.85333333333332" y="285.47999999999996"/>
      <point x="224.85333333333332" y="747.0" type="curve" smooth="yes"/>
      <point x="224.85333333333332" y="1168.1466666666668"/>
      <point x="364.51235955056177" y="1415.9066666666668"/>
      <point x="596.6266666666667" y="1415.9066666666668" type="curve" smooth="yes"/>
      <point x="832.1548717948718" y="1415.9066666666668"/>
      <point x="975.1466666666666" y="1144.52"/>
      <point x="975.1466666666666" y="683.0" type="curve" smooth="yes"/>
      <point x="975.1466666666666" y="261.8533333333333"/>
      <point x="835.4876404494382" y="14.093333333333332"/>
    </contour>
    <contour>
      <point x="601.12" y="1450.0" type="curve" smooth="yes"/>
      <point x="298.78761061946904" y="1450.0"/>
      <point x="95.54666666666667" y="1151.6266666666668"/>
      <point x="95.54666666666667" y="713.0" type="curve" smooth="yes"/>
      <point x="95.54666666666667" y="275.0"/>
      <point x="298.52264758497313" y="-20.0"/>
      <point x="598.88" y="-20.0" type="curve" smooth="yes"/>
      <point x="901.212389380531" y="-20.0"/>
      <point x="1105.08" y="278.37333333333333"/>
      <point x="1105.08" y="717.0" type="curve" smooth="yes"/>
      <point x="1105.08" y="1155.0"/>
      <point x="901.4773524150269" y="1450.0"/>
    </contour>
  </outline>
</glyph>
<glyph name="colon" format="2">
  <advance width="465.06666666666666"/>
  <unicode hex="003A"/>
  <outline>
    <contour>
      <point x="232.53333333333333" y="193.82666666666668" type="curve" smooth="yes"/>
      <point x="171.84" y="193.82666666666668"/>
      <point x="126.62666666666667" y="147.23999999999998"/>
      <point x="126.62666666666667" y="88.66666666666667" type="curve" smooth="yes"/>
      <point x="126.62666666666667" y="30.093333333333334"/>
      <point x="171.84" y="-15.866666666666665"/>
      <point x="232.53333333333333" y="-15.866666666666665" type="curve" smooth="yes"/>
      <point x="293.22666666666663" y="-15.866666666666665"/>
      <point x="338.44" y="30.093333333333334"/>
      <point x="338.44" y="88.66666666666667" type="curve" smooth="yes"/>
      <point x="338.44" y="147.23999999999998"/>
      <point x="293.22666666666663" y="193.82666666666668"/>
    </contour>
    <contour>
      <point x="232.53333333333333" y="1039.8666666666666" type="curve" smooth="yes"/>
      <point x="171.84" y="1039.8666666666666"/>
      <point x="126.62666666666667" y="993.28"/>
      <point x="126.62666666666667" y="934.7066666666667" type="curve" smooth="yes"/>
      <point x="126.62666666666667" y="876.1333333333333"/>
      <point x="171.84" y="830.1733333333333"/>
      <point x="232.53333333333333" y="830.1733333333333" type="curve" smooth="yes"/>
      <point x="293.22666666666663" y="830.1733333333333"/>
      <point x="338.44" y="876.1333333333333"/>
      <point x="338.44" y="934.7066666666667" type="curve" smooth="yes"/>
      <point x="338.44" y="993.28"/>
      <point x="293.22666666666663" y="1039.8666666666666"/>
    </contour>
  </outline>
</glyph>
<glyph name="greater" format="2">
  <advance width="1150.0"/>
  <unicode hex="003E"/>
  <outline>
    <contour>
      <point x="966.1733333333334" y="503.37333333333333" type="line"/>
      <point x="966.1733333333334" y="526.6266666666667" type="line"/>
      <point x="170.25333333333333" y="174.21333333333334" type="line"/>
      <point x="170.25333333333333" y="115.0" type="line"/>
      <point x="1006.2533333333333" y="484.64000000000004" type="line"/>
      <point x="1006.2533333333333" y="539.36" type="line"/>
      <point x="170.25333333333333" y="909.0" type="line"/>
      <point x="170.25333333333333" y="849.7866666666667" type="line"/>
    </contour>
  </outline>
</glyph>
<glyph name="F" format="2">
  <advance width="1149.68"/>
  <unicode hex="0046"/>
  <anchor x="582.3866666666667" y="1430.0" name="UCtop"/>
  <anchor x="309.26666666666665" y="0.0" name="bottom"/>
  <outline>
    <contour>
      <point x="881.84" y="1006.36" type="line"/>
      <point x="867.36" y="1006.36" type="line"/>
      <point x="773.9066666666666" y="748.3466666666667" type="line"/>
      <point x="302.74666666666667" y="730.3733333333333" type="line"/>
      <point x="302.74666666666667" y="706.12" type="line"/>
      <point x="773.9066666666666" y="690.8933333333333" type="line"/>
      <point x="867.36" y="430.50666666666666" type="line"/>
      <point x="881.84" y="430.50666666666666" type="line"/>
      <point x="847.2133333333334" y="717.7466666666667" type="line"/>
    </contour>
    <contour>
      <point x="1024.8400000000001" y="1477.1066666666668" type="line"/>
      <point x="940.3333333333334" y="1430.0" type="line"/>
      <point x="269.14666666666665" y="1430.0" type="line"/>
      <point x="269.14666666666665" y="1388.8" type="line"/>
      <point x="1014.4266666666666" y="1388.8" type="line"/>
      <point x="924.3466666666667" y="1407.5333333333333" type="line"/>
      <point x="1102.56" y="1055.5733333333333" type="line"/>
      <point x="1120.6666666666667" y="1061.32" type="line"/>
      <point x="1030.3333333333335" y="1477.1066666666668" type="line"/>
    </contour>
    <contour>
      <point x="372.7866666666667" y="1430.0" type="line"/>
      <point x="63.61333333333333" y="1430.0" type="line"/>
      <point x="63.61333333333333" y="1411.6533333333334" type="line"/>
      <point x="245.12" y="1378.8" type="line"/>
      <point x="245.12" y="51.57333333333334" type="line"/>
      <point x="62.986666666666665" y="18.346666666666664" type="line"/>
      <point x="62.986666666666665" y="0.0" type="line"/>
      <point x="554.2933333333333" y="0.0" type="line"/>
      <point x="554.2933333333333" y="18.346666666666664" type="line"/>
      <point x="372.7866666666667" y="51.57333333333334" type="line"/>
    </contour>
  </outline>
</glyph>
<glyph name="G" format="2">
  <advance width="1515.4533333333334"/>
  <unicode hex="0047"/>
  <anchor x="801.36" y="1430.0" name="UCtop"/>
  <anchor x="801.36" y="0.0" name="bottom"/>
  <outline>
    <contour>
      <point x="1300.3066666666666" y="97.10666666666667" type="line"/>
      <point x="1300.3066666666666" y="588.9200000000001" type="line"/>
      <point x="1446.5866666666666" y="620.28" type="line"/>
      <point x="1446.5866666666666" y="639.3733333333333" type="line"/>
      <point x="963.7466666666667" y="639.3733333333333" type="line"/>
      <point x="963.7466666666667" y="620.28" type="line"/>
      <point x="1179.6133333333335" y="586.6800000000001" type="line"/>
      <point x="1179.6133333333335" y="36.906666666666666" type="line"/>
      <point x="1217.1466666666665" y="99.14666666666668" type="line"/>
      <point x="1134.08" y="38.24"/>
      <point x="1002.8666666666667" y="9.73333333333333"/>
      <point x="879.2" y="9.106666666666662" type="curve" smooth="yes"/>
      <point x="527.8533333333332" y="8.480000000000004"/>
      <point x="231.92000000000002" y="254.17333333333332"/>
      <point x="231.92000000000002" y="743.6133333333333" type="curve" smooth="yes"/>
      <point x="231.92000000000002" y="1204.1466666666665"/>
      <point x="480.3066666666666" y="1412.7733333333333"/>
      <point x="807.72" y="1412.7733333333333" type="curve" smooth="yes"/>
      <point x="963.04" y="1412.7733333333333"/>
      <point x="1106.0133333333333" y="1356.8533333333332"/>
      <point x="1246.1733333333334" y="1251.64" type="curve"/>
      <point x="1124.4533333333334" y="1368.9733333333334" type="line"/>
      <point x="1301.9333333333332" y="1008.92" type="line"/>
      <point x="1322.5466666666669" y="1012.5466666666666" type="line"/>
      <point x="1233.8" y="1480.8666666666668" type="line"/>
      <point x="1225.44" y="1480.8666666666668" type="line"/>
      <point x="1150.8" y="1379.24" type="line"/>
      <point x="1235.9333333333334" y="1379.6000000000001" type="line"/>
      <point x="1124.7733333333333" y="1424.5066666666667"/>
      <point x="996.9200000000001" y="1450.0"/>
      <point x="857.48" y="1450.0" type="curve" smooth="yes"/>
      <point x="400.09333333333336" y="1450.0"/>
      <point x="96.13333333333334" y="1161.1333333333334"/>
      <point x="96.13333333333334" y="720.2266666666667" type="curve" smooth="yes"/>
      <point x="96.13333333333334" y="237.77333333333334"/>
      <point x="440.72" y="-20.0"/>
      <point x="882.2" y="-20.0" type="curve" smooth="yes"/>
      <point x="1050.4933333333333" y="-20.0"/>
      <point x="1268.8133333333335" y="19.413333333333334"/>
      <point x="1425.1866666666667" y="84.26666666666667" type="curve"/>
      <point x="1425.1866666666667" y="97.10666666666667" type="line"/>
    </contour>
  </outline>
</glyph>
<glyph name="M" format="2">
  <advance width="1958.3866666666668"/>
  <unicode hex="004D"/>
  <anchor x="973.9066666666666" y="1430.0" name="UCtop"/>
  <anchor x="943.16" y="0.0" name="bottom"/>
  <outline>
    <contour>
      <point x="1750.1333333333332" y="51.57333333333334" type="line"/>
      <point x="1650.2666666666667" y="1376.2933333333333" type="line"/>
      <point x="1850.7733333333335" y="1409.7733333333333" type="line"/>
      <point x="1850.7733333333335" y="1430.0" type="line"/>
      <point x="1522.9866666666667" y="1430.0" type="line"/>
      <point x="966.3466666666667" y="123.74666666666664" type="line"/>
      <point x="995.5733333333333" y="123.74666666666666" type="line"/>
      <point x="429.05333333333334" y="1430.0" type="line"/>
      <point x="117.25333333333333" y="1430.0" type="line"/>
      <point x="117.25333333333333" y="1411.0266666666666" type="line"/>
      <point x="301.50666666666666" y="1366.0800000000002" type="line"/>
      <point x="211.61333333333334" y="51.57333333333334" type="line"/>
      <point x="30.106666666666666" y="18.346666666666664" type="line"/>
      <point x="30.106666666666666" y="0.0" type="line"/>
      <point x="443.5333333333333" y="0.0" type="line"/>
      <point x="443.5333333333333" y="18.346666666666664" type="line"/>
      <point x="254.56" y="51.57333333333334" type="line"/>
      <point x="342.08" y="1359.1733333333334" type="line"/>
      <point x="328.08" y="1356.8" type="line"/>
      <point x="924.6800000000001" y="-20.0" type="line"/>
      <point x="949.28" y="-20.0" type="line"/>
      <point x="1541.2266666666667" y="1367.6133333333335" type="line"/>
      <point x="1527.2266666666667" y="1369.6133333333335" type="line"/>
      <point x="1620.9733333333331" y="51.57333333333334" type="line"/>
      <point x="1438.8400000000001" y="18.346666666666664" type="line"/>
      <point x="1438.8400000000001" y="0.0" type="line"/>
      <point x="1931.64" y="0.0" type="line"/>
      <point x="1931.64" y="18.346666666666664" type="line"/>
    </contour>
  </outline>
</glyph>
<glyph name="Q" format="2">
  <advance width="1577.0666666666666"/>
  <unicode hex="0051"/>
  <anchor x="788.7199999999999" y="1430.0" name="UCtop"/>
  <anchor x="788.72" y="-444.99999999999994" name="bottom"/>
  <outline>
    <contour>
      <point x="1090.9866666666667" y="-337.06666666666666" type="line" smooth="yes"/>
      <point x="1221.8666666666668" y="-420.05333333333334"/>
      <point x="1297.48" y="-465.0"/>
      <point x="1430.6399999999999" y="-465.0" type="curve" smooth="yes"/>
      <point x="1498.3333333333333" y="-465.0"/>
      <point x="1577.1733333333334" y="-453.38666666666666"/>
      <point x="1672.7733333333335" y="-425.18666666666667" type="curve"/>
      <point x="1672.7733333333335" y="-401.2266666666667" type="line"/>
      <point x="1521.96" y="-422.72"/>
      <point x="1430.52" y="-400.6933333333333"/>
      <point x="1222.64" y="-283.6266666666667" type="curve" smooth="yes"/>
      <point x="694.3066666666667" y="16.64" type="line"/>
      <point x="699.5733333333334" y="-3.8800000000000003" type="line"/>
      <point x="1148.8666666666668" y="-75.44"/>
      <point x="1480.56" y="262.29333333333335"/>
      <point x="1480.56" y="716.7466666666667" type="curve" smooth="yes"/>
      <point x="1480.56" y="1142.6133333333332"/>
      <point x="1182.68" y="1450.0"/>
      <point x="780.8266666666667" y="1450.0" type="curve" smooth="yes"/>
      <point x="384.61333333333334" y="1450.0"/>
      <point x="96.50666666666667" y="1141.4933333333333"/>
      <point x="96.50666666666667" y="714.0" type="curve" smooth="yes"/>
      <point x="96.50666666666667" y="418.61333333333334"/>
      <point x="231.78666666666666" y="204.45333333333332"/>
      <point x="450.15999999999997" y="66.10666666666667" type="curve" smooth="yes"/>
    </contour>
    <contour>
      <point x="796.72" y="16.093333333333334" type="curve" smooth="yes"/>
      <point x="465.62666666666667" y="16.093333333333334"/>
      <point x="229.42666666666665" y="284.36"/>
      <point x="229.42666666666665" y="734.4666666666667" type="curve" smooth="yes"/>
      <point x="229.42666666666665" y="1137.0933333333332"/>
      <point x="433.85333333333335" y="1414.9066666666668"/>
      <point x="779.72" y="1414.9066666666668" type="curve" smooth="yes"/>
      <point x="1110.0666666666666" y="1414.9066666666668"/>
      <point x="1346.64" y="1145.6399999999999"/>
      <point x="1346.64" y="695.5333333333333" type="curve" smooth="yes"/>
      <point x="1346.64" y="293.28000000000003"/>
      <point x="1142.8400000000001" y="16.093333333333334"/>
    </contour>
  </outline>
</glyph>
<glyph name="R" format="2">
  <advance width="1293.9866666666665"/>
  <unicode hex="0052"/>
  <anchor x="606.2533333333333" y="1430.0" name="UCtop"/>
  <anchor x="738.7866666666667" y="0.0" name="bottom"/>
  <outline>
    <contour>
      <point x="583.3866666666667" y="758.6" type="curve" smooth="yes"/>
      <point x="285.6" y="758.6" type="line"/>
      <point x="285.6" y="720.3866666666667" type="line"/>
      <point x="620.2266666666667" y="720.3866666666667" type="line" smooth="yes"/>
      <point x="716.1199999999999" y="720.3866666666667"/>
      <point x="758.2533333333333" y="686.3866666666667"/>
      <point x="836.2666666666667" y="519.4666666666666" type="curve" smooth="yes"/>
      <point x="991.08" y="190.56" type="line" smooth="yes"/>
      <point x="1080.72" y="-0.8666666666666663"/>
      <point x="1114.3866666666668" y="-16.36"/>
      <point x="1336.6133333333335" y="0.0" type="curve"/>
      <point x="1336.6133333333335" y="24.346666666666664" type="line"/>
      <point x="1223.3600631778372" y="23.34666722085822"/>
      <point x="1197.6376386223146" y="42.84095508406677"/>
      <point x="1122.9066666666668" y="199.82666666666668" type="curve" smooth="yes"/>
      <point x="970.9200000000001" y="519.8266666666666" type="line" smooth="yes"/>
      <point x="892.0266666666668" y="686.88"/>
      <point x="830.2933333333333" y="740.5066666666667"/>
      <point x="652.3066666666666" y="741.2533333333333" type="curve"/>
      <point x="652.3066666666666" y="737.6266666666667" type="line"/>
      <point x="913.9866666666667" y="758.64"/>
      <point x="1055.72" y="902.6133333333333"/>
      <point x="1055.72" y="1083.6266666666668" type="curve" smooth="yes"/>
      <point x="1055.72" y="1280.24"/>
      <point x="924.2266666666666" y="1430.0"/>
      <point x="554.68" y="1430.0" type="curve" smooth="yes"/>
      <point x="285.6" y="1430.0" type="line"/>
      <point x="285.59999999999997" y="1391.7866666666666" type="line"/>
      <point x="471.8933333333333" y="1391.7866666666666" type="line" smooth="yes"/>
      <point x="806.52" y="1391.7866666666666"/>
      <point x="922.1733333333334" y="1274.3999999999999"/>
      <point x="922.1733333333334" y="1081.6266666666666" type="curve" smooth="yes"/>
      <point x="922.1733333333334" y="868.1066666666667"/>
      <point x="786.0133333333333" y="758.6"/>
    </contour>
    <contour>
      <point x="372.7866666666667" y="1430.0" type="line"/>
      <point x="63.61333333333333" y="1430.0" type="line"/>
      <point x="63.61333333333333" y="1411.6533333333334" type="line"/>
      <point x="245.12" y="1378.8" type="line"/>
      <point x="245.12" y="51.57333333333334" type="line"/>
      <point x="62.986666666666665" y="18.346666666666664" type="line"/>
      <point x="62.986666666666665" y="0.0" type="line"/>
      <point x="554.2933333333333" y="0.0" type="line"/>
      <point x="554.2933333333333" y="18.346666666666664" type="line"/>
      <point x="372.7866666666667" y="51.57333333333334" type="line"/>
    </contour>
  </outline>
</glyph>
<glyph name="S" format="2">
  <advance width="1069.36"/>
  <unicode hex="0053"/>
  <anchor x="518.16" y="1430.0" name="UCtop"/>
  <anchor x="538.84" y="0.0" name="bottom"/>
  <outline>
    <contour>
      <point x="838.16" y="1374.9066666666668" type="line"/>
      <point x="735.6800000000001" y="1429.0133333333333"/>
      <point x="648.84" y="1450.3733333333332"/>
      <point x="540.3866666666667" y="1450.3733333333332" type="curve" smooth="yes"/>
      <point x="290.96" y="1450.3733333333332"/>
      <point x="136.01333333333332" y="1311.7733333333333"/>
      <point x="136.01333333333332" y="1103.6000000000001" type="curve" smooth="yes"/>
      <point x="136.01333333333332" y="914.4266666666667"/>
      <point x="241.74666666666664" y="809.48"/>
      <point x="497.3066666666667" y="714.0400000000001" type="curve" smooth="yes"/>
      <point x="752.8666666666667" y="618.5999999999999"/>
      <point x="881.88" y="533.0266666666666"/>
      <point x="881.88" y="345.9066666666667" type="curve" smooth="yes"/>
      <point x="881.88" y="132.74666666666667"/>
      <point x="715.8133333333334" y="11.226666666666667"/>
      <point x="484.4533333333333" y="11.226666666666667" type="curve" smooth="yes"/>
      <point x="373.1733333333333" y="11.226666666666667"/>
      <point x="279.38666666666666" y="42.70666666666666"/>
      <point x="192.2" y="96.42666666666666" type="curve"/>
      <point x="296.32" y="13.106666666666666" type="line"/>
      <point x="104.98666666666666" y="397.3066666666667" type="line"/>
      <point x="82.25333333333334" y="397.3066666666667" type="line"/>
      <point x="161.36" y="40.49333333333333" type="line"/>
      <point x="265.2133333333333" y="-2.12"/>
      <point x="359.3333333333333" y="-20.373333333333335"/>
      <point x="487.18666666666667" y="-20.373333333333335" type="curve" smooth="yes"/>
      <point x="763.1733333333333" y="-20.373333333333335"/>
      <point x="972.8666666666667" y="148.46666666666667"/>
      <point x="972.8666666666667" y="401.44" type="curve" smooth="yes"/>
      <point x="972.8666666666667" y="620.12"/>
      <point x="847.08" y="732.1866666666667"/>
      <point x="592.9066666666666" y="822.6266666666667" type="curve" smooth="yes"/>
      <point x="338.7333333333333" y="913.0666666666666"/>
      <point x="222.26666666666668" y="992.4"/>
      <point x="222.26666666666668" y="1160.3466666666666" type="curve" smooth="yes"/>
      <point x="222.26666666666668" y="1313.0133333333333"/>
      <point x="320.44" y="1415.2933333333333"/>
      <point x="503.5866666666667" y="1415.2933333333333" type="curve" smooth="yes"/>
      <point x="620.2133333333334" y="1415.2933333333333"/>
      <point x="722.32" y="1369.8133333333335"/>
      <point x="829.0133333333334" y="1259.5866666666668" type="curve"/>
      <point x="759.9733333333334" y="1348.0133333333333" type="line"/>
      <point x="905.5066666666667" y="1025.52" type="line"/>
      <point x="924.4933333333333" y="1028.2666666666667" type="line"/>
      <point x="858.6" y="1480.8666666666668" type="line"/>
      <point x="849.12" y="1480.8666666666668" type="line"/>
      <point x="780.72" y="1385.7333333333333" type="line"/>
    </contour>
  </outline>
</glyph>
<glyph name="bracketleft" format="2">
  <advance width="542.8933333333333"/>
  <unicode hex="005B"/>
  <outline>
    <contour>
      <point x="193.50666666666666" y="-217.33333333333334" type="line"/>
      <point x="517.3866666666667" y="-217.33333333333334" type="line"/>
      <point x="517.3866666666667" y="-193.97333333333336" type="line"/>
      <point x="289.76" y="-172.48000000000002" type="line"/>
      <point x="289.76" y="1419.7733333333333" type="line"/>
      <point x="517.3866666666667" y="1441.2666666666667" type="line"/>
      <point x="517.3866666666667" y="1464.6266666666668" type="line"/>
      <point x="193.50666666666666" y="1464.6266666666668" type="line"/>
    </contour>
  </outline>
</glyph>
<glyph name="backslash" format="2">
  <advance width="778.3599999999999"/>
  <unicode hex="005C"/>
  <outline>
    <contour>
      <point x="720.1066666666666" y="0.0" type="line"/>
      <point x="123.10666666666665" y="1430.0" type="line"/>
      <point x="55.879999999999995" y="1430.0" type="line"/>
      <point x="652.88" y="0.0" type="line"/>
    </contour>
  </outline>
</glyph>
<glyph name="bracketright" format="2">
  <advance width="542.8933333333333"/>
  <unicode hex="005D"/>
  <outline>
    <contour>
      <point x="349.38666666666666" y="1463.3733333333332" type="line"/>
      <point x="25.506666666666664" y="1463.3733333333332" type="line"/>
      <point x="25.506666666666664" y="1440.0133333333333" type="line"/>
      <point x="253.13333333333333" y="1418.52" type="line"/>
      <point x="253.13333333333333" y="-172.48000000000002" type="line"/>
      <point x="25.506666666666664" y="-193.97333333333336" type="line"/>
      <point x="25.506666666666664" y="-217.33333333333334" type="line"/>
      <point x="349.38666666666666" y="-217.33333333333334" type="line"/>
    </contour>
  </outline>
</glyph>
<glyph name="asciicircum" format="2">
  <advance width="1150.0"/>
  <unicode hex="005E"/>
  <outline>
    <contour>
      <point x="564.12" y="1386.4266666666667" type="line"/>
      <point x="901.8933333333334" y="662.0" type="line"/>
      <point x="958.8533333333334" y="662.0" type="line"/>
      <point x="596.8533333333334" y="1430.0" type="line"/>
      <point x="551.1466666666666" y="1430.0" type="line"/>
      <point x="191.14666666666668" y="662.0" type="line"/>
      <point x="248.10666666666668" y="662.0" type="line"/>
      <point x="582.2533333333333" y="1386.4266666666667" type="line"/>
    </contour>
  </outline>
</glyph>
<glyph name="c" format="2">
  <advance width="937.36"/>
  <unicode hex="0063"/>
  <anchor x="518.9733333333334" y="1024.0" name="top"/>
  <anchor x="804.5999999999999" y="0.0" name="right"/>
  <anchor x="529.6266666666667" y="0.0" name="bottom"/>
  <outline>
    <contour>
      <point x="588.9733333333334" y="1044.0" type="curve" smooth="yes"/>
      <point x="277.94666666666666" y="1044.0"/>
      <point x="78.13333333333334" y="811.7466666666667"/>
      <point x="78.13333333333334" y="483.9733333333333" type="curve" smooth="yes"/>
      <point x="78.13333333333334" y="154.86666666666667"/>
      <point x="257.6" y="-20.0"/>
      <point x="517.3733333333333" y="-20.0" type="curve" smooth="yes"/>
      <point x="665.48" y="-20.0"/>
      <point x="762.6800000000001" y="41.10666666666666"/>
      <point x="902.9866666666667" y="231.33333333333331" type="curve"/>
      <point x="891.12" y="241.07999999999998" type="line"/>
      <point x="781.6266666666667" y="117.49333333333333"/>
      <point x="685.0266666666666" y="76.0"/>
      <point x="565.8666666666666" y="76.0" type="curve" smooth="yes"/>
      <point x="327.46666666666664" y="76.0"/>
      <point x="194.18666666666667" y="241.2"/>
      <point x="194.18666666666667" y="553.64" type="curve" smooth="yes"/>
      <point x="194.18666666666667" y="844.1866666666666"/>
      <point x="318.12" y="1001.0266666666668"/>
      <point x="521.1466666666666" y="1001.0266666666668" type="curve" smooth="yes"/>
      <point x="667.5733333333333" y="1001.0266666666668"/>
      <point x="764.5466666666667" y="834.9733333333334"/>
      <point x="791.5466666666667" y="834.9733333333334" type="curve" smooth="yes"/>
      <point x="833.24" y="834.9733333333334"/>
      <point x="862.2133333333334" y="866.08"/>
      <point x="862.2133333333334" y="907.7733333333333" type="curve" smooth="yes"/>
      <point x="862.2133333333334" y="977.6266666666667"/>
      <point x="772.8266666666667" y="1044.0"/>
    </contour>
  </outline>
</glyph>
<glyph name="d" format="2">
  <advance width="1152.6533333333332"/>
  <unicode hex="0064"/>
  <anchor x="970.3866666666667" y="1430.0" name="right"/>
  <anchor x="544.1466666666666" y="1430.0" name="UCtop"/>
  <anchor x="606.76" y="0.0" name="bottom"/>
  <anchor x="828.2133333333333" y="1200.1733333333334" name="center"/>
  <outline>
    <contour>
      <point x="853.4399999999999" y="843.0666666666666" type="curve" smooth="yes"/>
      <point x="853.4399999999999" y="134.05333333333334" type="line"/>
      <point x="853.44" y="-29.133333333333333" type="line"/>
      <point x="860.9466666666667" y="-29.133333333333333" type="line"/>
      <point x="1151.9466666666665" y="20.013333333333332" type="line"/>
      <point x="1151.9466666666665" y="35.120000000000005" type="line"/>
      <point x="1109.9466666666665" y="44.53585679729076"/>
      <point x="994.3866666666667" y="68.0461770682148"/>
      <point x="970.3866666666667" y="73.42666666666666" type="curve"/>
      <point x="970.3866666666667" y="1362.84" type="line"/>
      <point x="983.1333333333333" y="1484.0" type="line"/>
      <point x="977.0" y="1484.0" type="line"/>
      <point x="671.0133333333333" y="1425.1733333333332" type="line"/>
      <point x="671.0133333333333" y="1409.0533333333333" type="line"/>
      <point x="728.0133333333333" y="1391.2910311386586"/>
      <point x="829.4399999999999" y="1361.3321974153016"/>
      <point x="853.4399999999999" y="1353.8533333333332" type="curve"/>
      <point x="853.4399999999999" y="969.4666666666667" type="line"/>
      <point x="930.4133333333334" y="979.92" type="line"/>
      <point x="848.4533333333334" y="1023.3866666666668"/>
      <point x="733.6133333333333" y="1044.0"/>
      <point x="631.0266666666666" y="1044.0" type="curve" smooth="yes"/>
      <point x="316.92" y="1044.0"/>
      <point x="77.50666666666667" y="835.2666666666667"/>
      <point x="77.50666666666667" y="473.90666666666664" type="curve" smooth="yes"/>
      <point x="77.50666666666667" y="160.46666666666667"/>
      <point x="247.89333333333332" y="-20.0"/>
      <point x="514.9066666666666" y="-20.0" type="curve" smooth="yes"/>
      <point x="613.6266666666667" y="-20.0"/>
      <point x="724.48" y="14.066666666666666"/>
      <point x="922.1866666666666" y="210.33333333333334" type="curve"/>
      <point x="909.0666666666666" y="219.05333333333334" type="line"/>
      <point x="793.12" y="107.13333333333334"/>
      <point x="678.6933333333333" y="73.13333333333333"/>
      <point x="565.0666666666666" y="73.13333333333333" type="curve" smooth="yes"/>
      <point x="319.6" y="73.13333333333333"/>
      <point x="201.44" y="246.6"/>
      <point x="201.44" y="525.7066666666667" type="curve" smooth="yes"/>
      <point x="201.44" y="819.3333333333333"/>
      <point x="354.79999999999995" y="1010.4133333333334"/>
      <point x="605.9466666666667" y="1010.4133333333334" type="curve" smooth="yes"/>
      <point x="751.3333333333334" y="1010.4133333333334"/>
      <point x="853.4399999999999" y="936.4666666666667"/>
    </contour>
  </outline>
</glyph>
<glyph name="f" format="2">
  <advance width="692.5733333333333"/>
  <unicode hex="0066"/>
  <anchor x="552.88" y="1430.0" name="UCtop"/>
  <anchor x="278.4666666666667" y="0.0" name="bottom"/>
  <outline>
    <contour>
      <point x="278.6933333333333" y="948.5866666666667" type="line"/>
      <point x="679.3466666666667" y="948.5866666666667" type="line"/>
      <point x="691.5866666666667" y="1024.0" type="line"/>
      <point x="267.35999999999996" y="1024.0" type="line"/>
      <point x="244.67999999999998" y="1028.3733333333334" type="line"/>
      <point x="19.093333333333334" y="988.2933333333333" type="line"/>
      <point x="19.093333333333334" y="967.5733333333334" type="line"/>
      <point x="233.30666666666664" y="940.8533333333334" type="line"/>
    </contour>
    <contour>
      <point x="337.74666666666667" y="38.82666666666667" type="line"/>
      <point x="337.74666666666667" y="1140.2533333333333" type="line" smooth="yes"/>
      <point x="337.74666666666667" y="1330.2266666666667"/>
      <point x="417.96" y="1436.56"/>
      <point x="562.0533333333333" y="1436.56" type="curve" smooth="yes"/>
      <point x="689.68" y="1436.56"/>
      <point x="779.8533333333334" y="1317.1333333333332"/>
      <point x="794.9466666666666" y="1317.1333333333332" type="curve" smooth="yes"/>
      <point x="835.5466666666666" y="1317.1333333333332"/>
      <point x="859.8933333333333" y="1350.8533333333332"/>
      <point x="859.8933333333333" y="1385.0666666666666" type="curve" smooth="yes"/>
      <point x="859.8933333333333" y="1445.6666666666667"/>
      <point x="783.76" y="1484.0"/>
      <point x="661.4533333333333" y="1484.0" type="curve" smooth="yes"/>
      <point x="418.9066666666667" y="1484.0"/>
      <point x="218.56" y="1325.8400000000001"/>
      <point x="218.56" y="1031.9199999999998" type="curve" smooth="yes"/>
      <point x="218.56" y="38.82666666666667" type="line"/>
      <point x="71.80000000000001" y="16.346666666666668" type="line"/>
      <point x="71.80000000000001" y="0.0" type="line"/>
      <point x="502.0" y="0.0" type="line"/>
      <point x="502.0" y="16.346666666666668" type="line"/>
    </contour>
  </outline>
</glyph>
<glyph name="k" format="2">
  <advance width="1088.7466666666667"/>
  <unicode hex="006B"/>
  <anchor x="549.5466666666667" y="0.0" name="bottom"/>
  <anchor x="550.9333333333334" y="1430.0" name="UCtop"/>
  <outline>
    <contour>
      <point x="366.74666666666667" y="577.7066666666667" type="line"/>
      <point x="897.2666666666668" y="981.8133333333333" type="line"/>
      <point x="1041.76" y="1005.4133333333333" type="line"/>
      <point x="1041.76" y="1024.0" type="line"/>
      <point x="687.2133333333334" y="1024.0" type="line"/>
      <point x="687.2133333333334" y="1005.4133333333333" type="line"/>
      <point x="836.7199999999999" y="982.56" type="line"/>
      <point x="308.06666666666666" y="572.6" type="line"/>
      <point x="255.06666666666663" y="572.6" type="line"/>
      <point x="255.06666666666663" y="537.2533333333333" type="line"/>
      <point x="304.58666666666664" y="537.2533333333333" type="line"/>
      <point x="836.3066666666667" y="36.453333333333326" type="line"/>
      <point x="701.8133333333333" y="16.346666666666668" type="line"/>
      <point x="701.8133333333333" y="0.0" type="line"/>
      <point x="1109.12" y="0.0" type="line"/>
      <point x="1109.12" y="16.346666666666668" type="line"/>
      <point x="990.4799999999999" y="37.199999999999996" type="line"/>
      <point x="388.06666666666666" y="609.4266666666666" type="line"/>
    </contour>
    <contour>
      <point x="293.2" y="38.82666666666667" type="line"/>
      <point x="293.2" y="1355.72" type="line"/>
      <point x="293.2" y="1484.0" type="line"/>
      <point x="286.6933333333333" y="1484.0" type="line"/>
      <point x="-6.173333333333334" y="1425.1733333333334" type="line"/>
      <point x="-6.173333333333334" y="1409.0533333333333" type="line"/>
      <point x="71.82666666666667" y="1384.7470250669364"/>
      <point x="150.25333333333333" y="1361.955436088799"/>
      <point x="176.25333333333333" y="1353.8533333333335" type="curve"/>
      <point x="176.25333333333333" y="38.82666666666667" type="line"/>
      <point x="29.493333333333336" y="16.346666666666668" type="line"/>
      <point x="29.493333333333336" y="0.0" type="line"/>
      <point x="437.4533333333333" y="0.0" type="line"/>
      <point x="437.4533333333333" y="16.346666666666668" type="line"/>
    </contour>
  </outline>
</glyph>
<glyph name="l" format="2">
  <advance width="475.4533333333333"/>
  <unicode hex="006C"/>
  <anchor x="234.93333333333334" y="1430.0" name="UCtop"/>
  <anchor x="296.82666666666665" y="1430.0" name="right"/>
  <anchor x="238.66666666666666" y="0.0" name="bottom"/>
  <anchor x="565.32" y="582.0" name="mid"/>
  <outline>
    <contour>
      <point x="296.82666666666665" y="38.82666666666667" type="line"/>
      <point x="296.82666666666665" y="1351.9866666666667" type="line"/>
      <point x="296.82666666666665" y="1484.0" type="line"/>
      <point x="290.32" y="1484.0" type="line"/>
      <point x="-2.546666666666667" y="1425.1733333333334" type="line"/>
      <point x="-2.546666666666667" y="1409.0533333333333" type="line"/>
      <point x="75.45333333333333" y="1384.7470250669364"/>
      <point x="153.88" y="1361.955436088799"/>
      <point x="179.88" y="1353.8533333333335" type="curve"/>
      <point x="179.88" y="38.82666666666667" type="line"/>
      <point x="33.120000000000005" y="16.346666666666668" type="line"/>
      <point x="33.120000000000005" y="0.0" type="line"/>
      <point x="441.08" y="0.0" type="line"/>
      <point x="441.08" y="16.346666666666668" type="line"/>
    </contour>
  </outline>
</glyph>
<glyph name="p" format="2">
  <advance width="1154.28"/>
  <unicode hex="0070"/>
  <anchor x="590.4933333333333" y="1024.0" name="top"/>
  <anchor x="242.30666666666667" y="-445.0" name="bottom"/>
  <outline>
    <contour>
      <point x="952.4666666666667" y="505.81333333333333" type="curve" smooth="yes"/>
      <point x="952.4666666666667" y="210.93333333333334"/>
      <point x="808.5066666666667" y="13.586666666666666"/>
      <point x="570.52" y="13.586666666666666" type="curve" smooth="yes"/>
      <point x="394.4266666666666" y="13.586666666666666"/>
      <point x="300.46666666666664" y="128.89333333333332"/>
      <point x="300.46666666666664" y="250.49333333333334" type="curve" smooth="yes"/>
      <point x="300.46666666666664" y="888.8666666666667" type="line"/>
      <point x="300.46666666666664" y="1055.0" type="line"/>
      <point x="293.96" y="1055.0" type="line"/>
      <point x="27.36" y="1003.48" type="line"/>
      <point x="27.36" y="987.36" type="line"/>
      <point x="101.36" y="960.3586036727501"/>
      <point x="157.51999999999998" y="941.9403104212861"/>
      <point x="183.51999999999998" y="932.4533333333333" type="curve"/>
      <point x="183.51999999999998" y="-406.17333333333335" type="line"/>
      <point x="36.76" y="-428.6533333333333" type="line"/>
      <point x="36.76" y="-445.0" type="line"/>
      <point x="452.18666666666667" y="-445.0" type="line"/>
      <point x="452.18666666666667" y="-428.6533333333333" type="line"/>
      <point x="300.46666666666664" y="-406.17333333333335" type="line"/>
      <point x="300.46666666666664" y="105.49333333333334" type="line"/>
      <point x="210.33333333333331" y="105.49333333333334" type="line"/>
      <point x="295.4266666666667" y="18.16"/>
      <point x="419.66666666666663" y="-20.0"/>
      <point x="552.96" y="-20.0" type="curve" smooth="yes"/>
      <point x="842.6266666666667" y="-20.0"/>
      <point x="1076.3999999999999" y="195.0"/>
      <point x="1076.3999999999999" y="563.88" type="curve" smooth="yes"/>
      <point x="1076.3999999999999" y="859.1466666666666"/>
      <point x="919.1466666666666" y="1044.0"/>
      <point x="658.4" y="1044.0" type="curve" smooth="yes"/>
      <point x="559.68" y="1044.0"/>
      <point x="447.5733333333334" y="998.6533333333333"/>
      <point x="231.72" y="826.2" type="curve"/>
      <point x="244.83999999999997" y="817.48" type="line"/>
      <point x="405.9066666666667" y="922.5066666666667"/>
      <point x="493.38666666666666" y="950.24"/>
      <point x="600.7466666666667" y="950.24" type="curve" smooth="yes"/>
      <point x="819.2666666666667" y="950.24"/>
      <point x="952.4666666666667" y="791.8133333333333"/>
    </contour>
  </outline>
</glyph>
<glyph name="q" format="2">
  <advance width="1119.2666666666667"/>
  <unicode hex="0071"/>
  <anchor x="575.6" y="1024.0" name="top"/>
  <anchor x="912.2266666666667" y="-445.0" name="bottom"/>
  <outline>
    <contour>
      <point x="201.44" y="508.7866666666667" type="curve" smooth="yes"/>
      <point x="201.44" y="819.3333333333333"/>
      <point x="354.79999999999995" y="1010.4133333333334"/>
      <point x="605.9466666666666" y="1010.4133333333334" type="curve" smooth="yes"/>
      <point x="757.6" y="1010.4133333333334"/>
      <point x="853.4399999999999" y="941.48"/>
      <point x="853.4399999999999" y="834.92" type="curve" smooth="yes"/>
      <point x="853.4399999999999" y="-406.17333333333335" type="line"/>
      <point x="689.1866666666666" y="-428.6533333333333" type="line"/>
      <point x="689.1866666666666" y="-445.0" type="line"/>
      <point x="1117.1466666666668" y="-445.0" type="line"/>
      <point x="1117.1466666666668" y="-428.6533333333333" type="line"/>
      <point x="970.3866666666667" y="-406.17333333333335" type="line"/>
      <point x="970.3866666666667" y="862.48" type="line"/>
      <point x="1006.6266666666667" y="1052.9199999999998" type="line"/>
      <point x="995.0133333333333" y="1055.9066666666668" type="line"/>
      <point x="856.9200000000001" y="944.0133333333333" type="line"/>
      <point x="943.5733333333334" y="979.92" type="line"/>
      <point x="860.36" y="1023.3866666666667"/>
      <point x="743.64" y="1044.0"/>
      <point x="634.7866666666666" y="1044.0" type="curve" smooth="yes"/>
      <point x="320.68" y="1044.0"/>
      <point x="77.50666666666667" y="829.0"/>
      <point x="77.50666666666667" y="467.64" type="curve" smooth="yes"/>
      <point x="77.50666666666667" y="154.2"/>
      <point x="247.89333333333332" y="-20.0"/>
      <point x="514.9066666666666" y="-20.0" type="curve" smooth="yes"/>
      <point x="613.6266666666667" y="-20.0"/>
      <point x="724.48" y="14.066666666666665"/>
      <point x="922.1866666666666" y="210.33333333333334" type="curve"/>
      <point x="909.0666666666667" y="219.05333333333334" type="line"/>
      <point x="793.12" y="107.13333333333333"/>
      <point x="678.6933333333333" y="73.13333333333333"/>
      <point x="565.0666666666666" y="73.13333333333333" type="curve" smooth="yes"/>
      <point x="319.6" y="73.13333333333333"/>
      <point x="201.44" y="246.6"/>
    </contour>
  </outline>
</glyph>
<glyph name="r" format="2">
  <advance width="721.2933333333333"/>
  <unicode hex="0072"/>
  <anchor x="377.7733333333333" y="1024.0" name="top"/>
  <anchor x="250.92" y="0.0" name="bottom"/>
  <outline>
    <contour>
      <point x="637.7466666666667" y="1042.0" type="curve" smooth="yes"/>
      <point x="572.6266666666667" y="1042.0"/>
      <point x="511.8666666666667" y="1018.36"/>
      <point x="292.69333333333327" y="815.88" type="curve"/>
      <point x="292.6933333333333" y="790.68" type="line"/>
      <point x="397.08" y="879.7866666666667"/>
      <point x="442.2" y="905.2666666666667"/>
      <point x="511.48" y="905.2666666666667" type="curve" smooth="yes"/>
      <point x="565.9599999999999" y="905.2666666666667"/>
      <point x="586.28" y="889.5333333333333"/>
      <point x="625.64" y="889.5333333333333" type="curve" smooth="yes"/>
      <point x="673.4666666666666" y="889.5333333333333"/>
      <point x="708.0533333333333" y="922.12"/>
      <point x="708.0533333333333" y="972.4399999999999" type="curve" smooth="yes"/>
      <point x="708.0533333333333" y="1015.1466666666666"/>
      <point x="681.9599999999999" y="1042.0"/>
    </contour>
    <contour>
      <point x="309.08" y="838.0666666666666" type="line"/>
      <point x="309.08" y="1055.0" type="line"/>
      <point x="302.5733333333334" y="1055.0" type="line"/>
      <point x="35.973333333333336" y="1003.48" type="line"/>
      <point x="35.973333333333336" y="987.36" type="line"/>
      <point x="109.97333333333333" y="960.3586036727501"/>
      <point x="166.13333333333333" y="941.9403104212861"/>
      <point x="192.13333333333333" y="932.4533333333333" type="curve"/>
      <point x="192.13333333333333" y="38.82666666666667" type="line"/>
      <point x="45.37333333333333" y="16.346666666666668" type="line"/>
      <point x="45.37333333333333" y="0.0" type="line"/>
      <point x="473.3333333333333" y="0.0" type="line"/>
      <point x="473.3333333333333" y="16.346666666666668" type="line"/>
      <point x="309.08" y="38.82666666666667" type="line"/>
    </contour>
  </outline>
</glyph>
<glyph name="v" format="2">
  <advance width="1125.7333333333333"/>
  <unicode hex="0076"/>
  <anchor x="575.8533333333334" y="1024.0" name="top"/>
  <anchor x="569.6133333333333" y="0.0" name="bottom"/>
  <outline>
    <contour>
      <point x="982.44" y="983.9333333333333" type="line"/>
      <point x="1116.48" y="1005.4133333333333" type="line"/>
      <point x="1116.48" y="1024.0" type="line"/>
      <point x="789.52" y="1024.0" type="line"/>
      <point x="789.52" y="1005.4133333333333" type="line"/>
      <point x="931.2666666666667" y="982.9333333333333" type="line"/>
      <point x="592.9200000000001" y="80.24" type="line"/>
      <point x="629.4" y="113.45333333333333" type="line"/>
      <point x="246.43999999999997" y="981.3199999999999" type="line"/>
      <point x="393.32" y="1005.4133333333333" type="line"/>
      <point x="393.32" y="1024.0" type="line"/>
      <point x="-17.253333333333334" y="1024.0" type="line"/>
      <point x="-17.253333333333334" y="1005.4133333333333" type="line"/>
      <point x="118.89333333333333" y="979.9466666666667" type="line"/>
      <point x="570.8933333333333" y="-26.0" type="line"/>
      <point x="583.7333333333333" y="-26.0" type="line"/>
    </contour>
  </outline>
</glyph>
<glyph name="z" format="2">
  <advance width="913.5466666666667"/>
  <unicode hex="007A"/>
  <anchor x="478.2" y="1024.0" name="top"/>
  <anchor x="465.71999999999997" y="0.0" name="bottom"/>
  <outline>
    <contour>
      <point x="64.12" y="0.0" type="line"/>
      <point x="797.9466666666667" y="0.0" type="line"/>
      <point x="880.4133333333334" y="352.17333333333335" type="line"/>
      <point x="852.68" y="352.17333333333335" type="line"/>
      <point x="694.9733333333334" y="22.373333333333335" type="line"/>
      <point x="736.9066666666666" y="44.42666666666666" type="line"/>
      <point x="145.32000000000002" y="33.97333333333333" type="line"/>
      <point x="185.68" y="8.239999999999998" type="line"/>
      <point x="836.04" y="1011.64" type="line"/>
      <point x="836.04" y="1024.0" type="line"/>
      <point x="186.9466666666667" y="1024.0" type="line"/>
      <point x="123.21333333333332" y="1082.72" type="line"/>
      <point x="111.22666666666667" y="1082.72" type="line"/>
      <point x="58.74666666666666" y="716.8666666666667" type="line"/>
      <point x="83.22666666666667" y="716.8666666666667" type="line"/>
      <point x="201.33333333333331" y="1004.0266666666666" type="line"/>
      <point x="140.70666666666665" y="981.44" type="line"/>
      <point x="746.7199999999999" y="988.5333333333334" type="line"/>
      <point x="714.2266666666667" y="1018.1333333333333" type="line"/>
      <point x="64.12" y="13.36" type="line"/>
    </contour>
  </outline>
</glyph>
<glyph name="braceright" format="2">
  <advance width="562.9466666666666"/>
  <unicode hex="007D"/>
  <outline>
    <contour>
      <point x="522.08" y="638.0133333333333" type="line"/>
      <point x="431.6666666666667" y="641.76" type="line" smooth="yes"/>
      <point x="334.68" y="646.6266666666667"/>
      <point x="298.5466666666667" y="714.16"/>
      <point x="298.5466666666667" y="798.2933333333333" type="curve" smooth="yes"/>
      <point x="298.5466666666667" y="961.56"/>
      <point x="366.02666666666664" y="1072.2666666666667"/>
      <point x="366.02666666666664" y="1193.0133333333333" type="curve" smooth="yes"/>
      <point x="366.02666666666664" y="1333.0"/>
      <point x="291.81333333333333" y="1456.7466666666667"/>
      <point x="121.22666666666666" y="1476.7466666666667" type="curve" smooth="yes"/>
      <point x="48.0" y="1484.7466666666667" type="line"/>
      <point x="43.25333333333333" y="1460.5066666666667" type="line"/>
      <point x="104.50666666666666" y="1452.1333333333332" type="line" smooth="yes"/>
      <point x="219.13333333333335" y="1436.76"/>
      <point x="266.52" y="1358.2666666666667"/>
      <point x="266.52" y="1240.1333333333332" type="curve" smooth="yes"/>
      <point x="266.52" y="1125.1333333333334"/>
      <point x="219.26666666666668" y="1000.3866666666667"/>
      <point x="219.26666666666668" y="853.0133333333333" type="curve" smooth="yes"/>
      <point x="219.26666666666668" y="736.52"/>
      <point x="276.49333333333334" y="631.88"/>
      <point x="413.35999999999996" y="614.2666666666667" type="curve"/>
      <point x="413.35999999999996" y="633.52" type="line"/>
      <point x="276.49333333333334" y="616.28"/>
      <point x="219.26666666666668" y="511.26666666666665"/>
      <point x="219.26666666666668" y="394.77333333333337" type="curve" smooth="yes"/>
      <point x="219.26666666666668" y="247.4"/>
      <point x="266.52" y="122.65333333333334"/>
      <point x="266.52" y="7.653333333333336" type="curve" smooth="yes"/>
      <point x="266.52" y="-110.10666666666665"/>
      <point x="219.13333333333335" y="-188.6"/>
      <point x="104.50666666666666" y="-204.34666666666666" type="curve" smooth="yes"/>
      <point x="43.25333333333333" y="-212.72" type="line"/>
      <point x="48.0" y="-236.58666666666667" type="line"/>
      <point x="121.22666666666666" y="-228.58666666666667" type="line" smooth="yes"/>
      <point x="291.81333333333333" y="-209.33333333333334"/>
      <point x="366.02666666666664" y="-84.83999999999999"/>
      <point x="366.02666666666664" y="55.14666666666666" type="curve" smooth="yes"/>
      <point x="366.02666666666664" y="175.51999999999998"/>
      <point x="298.5466666666667" y="286.2266666666667"/>
      <point x="298.5466666666667" y="449.8666666666667" type="curve" smooth="yes"/>
      <point x="298.5466666666667" y="534.0"/>
      <point x="334.68" y="601.16"/>
      <point x="431.6666666666667" y="606.0266666666666" type="curve" smooth="yes"/>
      <point x="522.08" y="609.7733333333333" type="line"/>
    </contour>
  </outline>
</glyph>
<glyph name="exclamdown" format="2">
  <advance width="439.65333333333336"/>
  <unicode hex="00A1"/>
  <outline>
    <contour>
      <point x="136.6" y="-361.9866666666667" type="line" smooth="yes"/>
      <point x="136.6" y="-402.9066666666667"/>
      <point x="178.02666666666667" y="-423.49333333333334"/>
      <point x="218.82666666666668" y="-423.49333333333334" type="curve" smooth="yes"/>
      <point x="260.25333333333333" y="-423.49333333333334"/>
      <point x="302.05333333333334" y="-402.9066666666667"/>
      <point x="302.05333333333334" y="-361.9866666666667" type="curve" smooth="yes"/>
      <point x="302.05333333333334" y="-333.48" type="line" smooth="yes"/>
      <point x="302.05333333333334" y="-291.28000000000003"/>
      <point x="252.62666666666664" y="198.36"/>
      <point x="234.32" y="602.9866666666667" type="curve"/>
      <point x="206.95999999999998" y="602.9866666666667" type="line"/>
      <point x="188.65333333333334" y="198.36"/>
      <point x="136.60000000000002" y="-293.53333333333336"/>
      <point x="136.6" y="-333.48" type="curve" smooth="yes"/>
    </contour>
    <contour>
      <point x="218.82666666666668" y="830.1733333333333" type="curve" smooth="yes"/>
      <point x="279.52" y="830.1733333333333"/>
      <point x="324.73333333333335" y="876.76"/>
      <point x="324.73333333333335" y="935.3333333333334" type="curve" smooth="yes"/>
      <point x="324.73333333333335" y="993.9066666666666"/>
      <point x="279.52" y="1039.8666666666668"/>
      <point x="218.82666666666668" y="1039.8666666666668" type="curve" smooth="yes"/>
      <point x="158.13333333333333" y="1039.8666666666668"/>
      <point x="112.91999999999999" y="993.9066666666666"/>
      <point x="112.91999999999999" y="935.3333333333334" type="curve" smooth="yes"/>
      <point x="112.91999999999999" y="876.76"/>
      <point x="158.13333333333333" y="830.1733333333333"/>
    </contour>
  </outline>
</glyph>
<glyph name="brokenbar" format="2">
  <advance width="452.74666666666667"/>
  <unicode hex="00A6"/>
  <outline>
    <contour>
      <point x="258.61333333333334" y="725.0" type="line"/>
      <point x="258.61333333333334" y="1535.0" type="line"/>
      <point x="194.13333333333333" y="1535.0" type="line"/>
      <point x="194.13333333333333" y="725.0" type="line"/>
    </contour>
    <contour>
      <point x="194.13333333333333" y="-465.0" type="line"/>
      <point x="258.61333333333334" y="-465.0" type="line"/>
      <point x="258.61333333333334" y="345.0" type="line"/>
      <point x="194.13333333333333" y="345.0" type="line"/>
    </contour>
  </outline>
</glyph>
<glyph name="guillemotleft" format="2">
  <advance width="868.8933333333333"/>
  <unicode hex="00AB"/>
  <outline>
    <contour>
      <point x="164.76" y="580.0799999999999" type="line"/>
      <point x="164.76" y="463.92" type="line"/>
      <point x="460.5733333333333" y="925.4666666666667" type="line"/>
      <point x="445.08" y="937.84" type="line"/>
      <point x="60.25333333333333" y="527.7466666666667" type="line"/>
      <point x="60.25333333333333" y="516.2533333333333" type="line"/>
      <point x="445.08" y="106.16" type="line"/>
      <point x="460.5733333333333" y="118.53333333333333" type="line"/>
    </contour>
    <contour>
      <point x="489.32" y="580.0799999999999" type="line"/>
      <point x="489.32" y="463.92" type="line"/>
      <point x="784.76" y="925.4666666666667" type="line"/>
      <point x="769.6400000000001" y="937.84" type="line"/>
      <point x="384.44" y="527.7466666666667" type="line"/>
      <point x="384.44" y="516.2533333333333" type="line"/>
      <point x="769.6400000000001" y="106.16" type="line"/>
      <point x="784.76" y="118.53333333333333" type="line"/>
    </contour>
  </outline>
</glyph>
<glyph name="uni00B2" format="2">
  <advance width="656.0"/>
  <unicode hex="00B2"/>
  <outline>
    <contour>
      <point x="465.62666666666667" y="700.0666666666666" type="line"/>
      <point x="543.24" y="752.0" type="line"/>
      <point x="151.49333333333334" y="752.0" type="line"/>
      <point x="136.73333333333335" y="715.8666666666667" type="line"/>
      <point x="333.4666666666667" y="929.0266666666666" type="line" smooth="yes"/>
      <point x="503.16" y="1110.1333333333332"/>
      <point x="534.1333333333333" y="1172.52"/>
      <point x="534.1333333333333" y="1250.1066666666666" type="curve" smooth="yes"/>
      <point x="534.1333333333333" y="1359.0"/>
      <point x="455.2666666666667" y="1441.4933333333333"/>
      <point x="319.04" y="1441.4933333333333" type="curve" smooth="yes"/>
      <point x="183.34666666666666" y="1441.4933333333333"/>
      <point x="83.37333333333333" y="1353.28"/>
      <point x="46.13333333333333" y="1188.1866666666667" type="curve"/>
      <point x="68.86666666666666" y="1183.8133333333333" type="line"/>
      <point x="105.86666666666666" y="1314.5866666666666"/>
      <point x="180.3733333333333" y="1358.84"/>
      <point x="269.3866666666667" y="1358.84" type="curve" smooth="yes"/>
      <point x="364.4" y="1358.84"/>
      <point x="424.15999999999997" y="1305.5866666666666"/>
      <point x="424.15999999999997" y="1213.8266666666668" type="curve" smooth="yes"/>
      <point x="424.15999999999997" y="1142.5866666666668"/>
      <point x="389.5466666666666" y="1060.3466666666666"/>
      <point x="267.6933333333333" y="915.9733333333334" type="curve" smooth="yes"/>
      <point x="68.0" y="672.12" type="line"/>
      <point x="68.0" y="662.0" type="line"/>
      <point x="494.3066666666667" y="662.0" type="line"/>
      <point x="537.28" y="636.3866666666667" type="line"/>
      <point x="544.52" y="636.3866666666667" type="line"/>
      <point x="608.2533333333333" y="875.52" type="line"/>
      <point x="597.1333333333333" y="875.52" type="line"/>
    </contour>
  </outline>
</glyph>
<glyph name="uni00B5" format="2">
  <advance width="1206.3866666666668"/>
  <unicode hex="00B5"/>
  <outline>
    <contour>
      <point x="204.64000000000001" y="1024.0" type="line"/>
      <point x="204.64000000000001" y="-454.12" type="line"/>
      <point x="214.64000000000001" y="-454.12" type="line"/>
      <point x="337.1066666666667" y="-443.1333333333333" type="line"/>
      <point x="234.98666666666668" y="171.18666666666667" type="line"/>
      <point x="227.61333333333334" y="171.18666666666667" type="line"/>
      <point x="247.4" y="30.346666666666668"/>
      <point x="350.8933333333333" y="-20.0"/>
      <point x="481.26666666666665" y="-20.0" type="curve" smooth="yes"/>
      <point x="596.2533333333333" y="-20.0"/>
      <point x="682.7733333333333" y="8.866666666666665"/>
      <point x="877.1066666666667" y="142.30666666666667" type="curve"/>
      <point x="871.1333333333334" y="161.17333333333332" type="line"/>
      <point x="790.96" y="109.01333333333332"/>
      <point x="667.52" y="68.50666666666666"/>
      <point x="552.4933333333333" y="68.50666666666666" type="curve" smooth="yes"/>
      <point x="385.82666666666665" y="68.50666666666666"/>
      <point x="321.58666666666664" y="133.37333333333333"/>
      <point x="321.58666666666664" y="325.02666666666664" type="curve" smooth="yes"/>
      <point x="321.58666666666664" y="1024.0" type="line"/>
    </contour>
    <contour>
      <point x="961.1333333333333" y="169.70666666666668" type="curve" smooth="yes"/>
      <point x="961.1333333333333" y="1024.0" type="line"/>
      <point x="844.1866666666667" y="1024.0" type="line"/>
      <point x="844.1866666666667" y="177.93333333333334" type="line" smooth="yes"/>
      <point x="844.1866666666667" y="38.18666666666666"/>
      <point x="889.3333333333333" y="-18.746666666666666"/>
      <point x="992.04" y="-18.746666666666666" type="curve" smooth="yes"/>
      <point x="1060.76" y="-18.746666666666666"/>
      <point x="1115.9733333333334" y="8.653333333333336"/>
      <point x="1184.8933333333334" y="80.53333333333333" type="curve"/>
      <point x="1184.8933333333334" y="99.38666666666667" type="line"/>
      <point x="1132.5066666666667" y="67.64"/>
      <point x="1101.6666666666667" y="59.279999999999994"/>
      <point x="1056.6666666666667" y="59.279999999999994" type="curve" smooth="yes"/>
      <point x="1004.5333333333333" y="59.279999999999994"/>
      <point x="961.1333333333333" y="84.90666666666667"/>
    </contour>
  </outline>
</glyph>
<glyph name="uni00B9" format="2">
  <advance width="517.16"/>
  <unicode hex="00B9"/>
  <outline>
    <contour>
      <point x="249.66666666666666" y="705.8533333333334" type="line"/>
      <point x="92.01333333333334" y="677.36" type="line"/>
      <point x="92.01333333333334" y="662.0" type="line"/>
      <point x="491.4266666666667" y="662.0" type="line"/>
      <point x="491.4266666666667" y="677.36" type="line"/>
      <point x="347.7733333333333" y="705.8533333333334" type="line"/>
      <point x="347.7733333333333" y="1440.8666666666666" type="line"/>
      <point x="329.4133333333333" y="1440.8666666666666" type="line"/>
      <point x="31.626666666666665" y="1285.4" type="line"/>
      <point x="37.37333333333333" y="1269.92" type="line"/>
      <point x="293.3066666666666" y="1340.0533333333333" type="line"/>
      <point x="249.66666666666666" y="1353.7733333333333" type="line"/>
    </contour>
  </outline>
</glyph>
<glyph name="ordmasculine" format="2">
  <advance width="908.16"/>
  <unicode hex="00BA"/>
  <outline>
    <contour>
      <point x="155.01333333333332" y="574.3866666666667" type="line"/>
      <point x="753.1466666666666" y="574.3866666666667" type="line"/>
      <point x="753.1466666666666" y="624.6133333333333" type="line"/>
      <point x="155.01333333333332" y="624.6133333333333" type="line"/>
    </contour>
    <contour>
      <point x="454.4533333333333" y="819.5999999999999" type="curve" smooth="yes"/>
      <point x="314.52" y="819.5999999999999"/>
      <point x="228.45333333333332" y="938.6781518151815"/>
      <point x="228.45333333333332" y="1119.2266666666667" type="curve" smooth="yes"/>
      <point x="228.45333333333332" y="1302.269268292683"/>
      <point x="314.26666666666665" y="1420.4"/>
      <point x="453.70666666666665" y="1420.4" type="curve" smooth="yes"/>
      <point x="592.64" y="1420.4"/>
      <point x="679.08" y="1301.3218481848187"/>
      <point x="679.08" y="1120.7733333333335" type="curve" smooth="yes"/>
      <point x="679.08" y="937.3626016260163"/>
      <point x="592.8933333333333" y="819.5999999999999"/>
    </contour>
    <contour>
      <point x="450.58666666666664" y="790.0" type="curve" smooth="yes"/>
      <point x="638.8" y="790.0"/>
      <point x="783.6533333333333" y="918.9118584070796"/>
      <point x="783.6533333333333" y="1125.6266666666668" type="curve" smooth="yes"/>
      <point x="783.6533333333333" y="1325.3455319148936"/>
      <point x="637.0266666666666" y="1450.0"/>
      <point x="456.5733333333333" y="1450.0" type="curve" smooth="yes"/>
      <point x="268.36" y="1450.0"/>
      <point x="123.88000000000001" y="1320.7192133726646"/>
      <point x="123.88000000000001" y="1114.3733333333334" type="curve" smooth="yes"/>
      <point x="123.88000000000001" y="914.6544680851064"/>
      <point x="271.25333333333333" y="790.0"/>
    </contour>
  </outline>
</glyph>
<glyph name="questiondown" format="2">
  <advance width="901.3866666666667"/>
  <unicode hex="00BF"/>
  <outline>
    <contour>
      <point x="589.2933333333333" y="-426.37333333333333" type="curve" smooth="yes"/>
      <point x="772.3866666666667" y="-426.37333333333333"/>
      <point x="850.76" y="-370.38666666666666"/>
      <point x="850.76" y="-312.92" type="curve" smooth="yes"/>
      <point x="850.76" y="-273.33333333333337"/>
      <point x="817.8" y="-245.74666666666667"/>
      <point x="783.5733333333333" y="-245.74666666666667" type="curve" smooth="yes"/>
      <point x="768.72" y="-245.74666666666667"/>
      <point x="686.5333333333334" y="-355.5333333333333"/>
      <point x="503.0533333333333" y="-355.5333333333333" type="curve" smooth="yes"/>
      <point x="292.85333333333335" y="-355.5333333333333"/>
      <point x="156.16" y="-252.00000000000003"/>
      <point x="156.16" y="-43.66666666666666" type="curve" smooth="yes"/>
      <point x="156.16" y="133.0"/>
      <point x="262.06666666666666" y="249.02666666666667"/>
      <point x="588.0266666666666" y="230.76000000000002" type="curve"/>
      <point x="534.4533333333333" y="602.6133333333333" type="line"/>
      <point x="509.97333333333336" y="602.6133333333333" type="line"/>
      <point x="509.97333333333336" y="253.46666666666667" type="line"/>
      <point x="538.4666666666667" y="336.8666666666666" type="line"/>
      <point x="187.61333333333334" y="349.6133333333333"/>
      <point x="75.25333333333333" y="214.2"/>
      <point x="75.25333333333333" y="11.120000000000001" type="curve" smooth="yes"/>
      <point x="75.25333333333333" y="-258.78666666666663"/>
      <point x="342.05333333333334" y="-426.37333333333333"/>
    </contour>
    <contour>
      <point x="516.96" y="829.8" type="curve" smooth="yes"/>
      <point x="577.6533333333333" y="829.8"/>
      <point x="622.8666666666667" y="876.3866666666667"/>
      <point x="622.8666666666667" y="934.96" type="curve" smooth="yes"/>
      <point x="622.8666666666667" y="993.5333333333333"/>
      <point x="577.6533333333333" y="1039.4933333333333"/>
      <point x="516.96" y="1039.4933333333333" type="curve" smooth="yes"/>
      <point x="456.26666666666665" y="1039.4933333333333"/>
      <point x="411.05333333333334" y="993.5333333333333"/>
      <point x="411.05333333333334" y="934.96" type="curve" smooth="yes"/>
      <point x="411.05333333333334" y="876.3866666666667"/>
      <point x="456.26666666666665" y="829.8"/>
    </contour>
  </outline>
</glyph>
<glyph name="Thorn" format="2">
  <advance width="1229.5733333333335"/>
  <unicode hex="00DE"/>
  <outline>
    <contour>
      <point x="1021.28" y="731.0" type="curve" smooth="yes"/>
      <point x="1021.28" y="512.3733333333333"/>
      <point x="884.5733333333333" y="385.84000000000003"/>
      <point x="577.2933333333333" y="385.84000000000003" type="curve" smooth="yes"/>
      <point x="291.5466666666667" y="385.84000000000003" type="line"/>
      <point x="291.5466666666666" y="344.64" type="line"/>
      <point x="640.96" y="344.64" type="line" smooth="yes"/>
      <point x="1007.9733333333335" y="344.64"/>
      <point x="1151.0666666666666" y="518.6133333333333"/>
      <point x="1151.0666666666666" y="735.8533333333334" type="curve" smooth="yes"/>
      <point x="1151.0666666666666" y="950.48"/>
      <point x="1009.96" y="1117.7333333333333"/>
      <point x="640.3333333333334" y="1117.7333333333333" type="curve" smooth="yes"/>
      <point x="298.44" y="1117.7333333333333" type="line"/>
      <point x="291.5466666666667" y="1076.5333333333333" type="line"/>
      <point x="528.76" y="1076.5333333333333" type="line" smooth="yes"/>
      <point x="895.7733333333333" y="1076.5333333333333"/>
      <point x="1021.28" y="948.1333333333333"/>
    </contour>
    <contour>
      <point x="554.2933333333333" y="18.346666666666664" type="line"/>
      <point x="372.7866666666667" y="51.57333333333334" type="line"/>
      <point x="372.7866666666667" y="1378.8" type="line"/>
      <point x="554.2933333333333" y="1411.6533333333334" type="line"/>
      <point x="554.2933333333333" y="1430.0" type="line"/>
      <point x="62.986666666666665" y="1430.0" type="line"/>
      <point x="62.986666666666665" y="1411.6533333333334" type="line"/>
      <point x="245.12" y="1378.8" type="line"/>
      <point x="245.12" y="51.57333333333334" type="line"/>
      <point x="62.986666666666665" y="18.346666666666664" type="line"/>
      <point x="62.986666666666665" y="0.0" type="line"/>
      <point x="554.2933333333333" y="0.0" type="line"/>
    </contour>
  </outline>
</glyph>
<glyph name="germandbls" format="2">
  <advance width="1224.6399999999999"/>
  <unicode hex="00DF"/>
  <outline>
    <contour>
      <point x="218.56" y="1013.04" type="curve" smooth="yes"/>
      <point x="218.56" y="38.82666666666667" type="line"/>
      <point x="71.80000000000001" y="16.346666666666668" type="line"/>
      <point x="71.80000000000001" y="0.0" type="line"/>
      <point x="491.9733333333333" y="0.0" type="line"/>
      <point x="491.9733333333333" y="16.346666666666668" type="line"/>
      <point x="337.74666666666667" y="38.82666666666667" type="line"/>
      <point x="337.74666666666667" y="1088.1466666666668" type="line" smooth="yes"/>
      <point x="337.74666666666667" y="1306.8666666666668"/>
      <point x="452.14666666666665" y="1445.1466666666668"/>
      <point x="663.2" y="1445.1466666666668" type="curve" smooth="yes"/>
      <point x="846.84" y="1445.1466666666668"/>
      <point x="929.6" y="1338.6666666666667"/>
      <point x="929.6" y="1245.5466666666666" type="curve" smooth="yes"/>
      <point x="929.6" y="997.04"/>
      <point x="618.3733333333333" y="960.6533333333334"/>
      <point x="618.3733333333333" y="748.2133333333333" type="curve" smooth="yes"/>
      <point x="618.3733333333333" y="449.70666666666665"/>
      <point x="1093.1333333333332" y="542.76"/>
      <point x="1093.1333333333332" y="250.02666666666667" type="curve" smooth="yes"/>
      <point x="1093.1333333333332" y="120.50666666666666"/>
      <point x="1007.8666666666668" y="14.093333333333332"/>
      <point x="868.96" y="14.093333333333332" type="curve" smooth="yes"/>
      <point x="780.6266666666667" y="14.093333333333332"/>
      <point x="709.32" y="44.38666666666667"/>
      <point x="674.1999999999999" y="82.30666666666667" type="curve"/>
      <point x="717.7333333333333" y="19.866666666666667" type="line"/>
      <point x="579.8933333333333" y="311.6" type="line"/>
      <point x="560.92" y="311.6" type="line"/>
      <point x="620.0533333333334" y="26.013333333333335" type="line"/>
      <point x="687.0533333333334" y="-6.119999999999999"/>
      <point x="762.0666666666667" y="-20.0"/>
      <point x="851.1866666666667" y="-20.0" type="curve" smooth="yes"/>
      <point x="1048.6666666666665" y="-20.0"/>
      <point x="1183.0133333333333" y="114.73333333333333"/>
      <point x="1183.0133333333333" y="293.32" type="curve" smooth="yes"/>
      <point x="1183.0133333333333" y="652.04"/>
      <point x="711.12" y="577.64"/>
      <point x="711.12" y="801.0533333333333" type="curve" smooth="yes"/>
      <point x="711.12" y="1010.3733333333334"/>
      <point x="1027.24" y="1025.3866666666668"/>
      <point x="1027.24" y="1256.8933333333334" type="curve" smooth="yes"/>
      <point x="1027.24" y="1372.0133333333333"/>
      <point x="919.7333333333333" y="1484.0"/>
      <point x="685.9333333333333" y="1484.0" type="curve" smooth="yes"/>
      <point x="438.76" y="1484.0"/>
      <point x="218.56" y="1320.0266666666666"/>
    </contour>
    <contour>
      <point x="244.67999999999998" y="1028.3733333333334" type="line"/>
      <point x="19.093333333333334" y="988.2933333333333" type="line"/>
      <point x="19.093333333333334" y="967.5733333333334" type="line"/>
      <point x="233.30666666666664" y="940.8533333333334" type="line"/>
    </contour>
  </outline>
</glyph>
<glyph name="divide" format="2">
  <advance width="1150.0"/>
  <unicode hex="00F7"/>
  <outline>
    <contour>
      <point x="575.0" y="245.72" type="curve" smooth="yes"/>
      <point x="522.8933333333333" y="245.72"/>
      <point x="483.28000000000003" y="204.36"/>
      <point x="483.28000000000003" y="154.0" type="curve" smooth="yes"/>
      <point x="483.28000000000003" y="103.64"/>
      <point x="522.8933333333333" y="63.279999999999994"/>
      <point x="575.0" y="63.279999999999994" type="curve" smooth="yes"/>
      <point x="627.1066666666667" y="63.279999999999994"/>
      <point x="666.72" y="103.64"/>
      <point x="666.72" y="154.0" type="curve" smooth="yes"/>
      <point x="666.72" y="204.36"/>
      <point x="627.1066666666667" y="245.72"/>
    </contour>
    <contour>
      <point x="575.0" y="961.3466666666667" type="curve" smooth="yes"/>
      <point x="522.8933333333333" y="961.3466666666667"/>
      <point x="483.28000000000003" y="920.36"/>
      <point x="483.28000000000003" y="870.0" type="curve" smooth="yes"/>
      <point x="483.28000000000003" y="819.64"/>
      <point x="522.8933333333333" y="779.28"/>
      <point x="575.0" y="779.28" type="curve" smooth="yes"/>
      <point x="627.1066666666667" y="779.28"/>
      <point x="666.72" y="819.64"/>
      <point x="666.72" y="870.0" type="curve" smooth="yes"/>
      <point x="666.72" y="920.36"/>
      <point x="627.1066666666667" y="961.3466666666667"/>
    </contour>
    <contour>
      <point x="164.0" y="538.1066666666667" type="line"/>
      <point x="164.0" y="485.8933333333333" type="line"/>
      <point x="986.0" y="485.8933333333333" type="line"/>
      <point x="986.0" y="538.1066666666667" type="line"/>
    </contour>
  </outline>
</glyph>
<glyph name="eogonek" format="2">
  <advance width="974.4666666666667"/>
  <unicode hex="0119"/>
  <outline>
    <contour>
      <point x="926.84" y="231.33333333333331" type="line"/>
      <point x="913.9733333333334" y="241.07999999999998" type="line"/>
      <point x="806.8666666666666" y="117.49333333333333"/>
      <point x="709.4" y="76.0"/>
      <point x="581.2266666666667" y="76.0" type="curve" smooth="yes"/>
      <point x="333.82666666666665" y="76.0"/>
      <point x="194.18666666666667" y="238.69333333333336"/>
      <point x="194.18666666666667" y="575.5733333333334" type="curve" smooth="yes"/>
      <point x="194.18666666666667" y="838.9733333333334"/>
      <point x="297.4533333333333" y="1005.0266666666668"/>
      <point x="522.7466666666667" y="1005.0266666666668" type="curve" smooth="yes"/>
      <point x="670.3199999999999" y="1005.0266666666668"/>
      <point x="754.6266666666667" y="900.76"/>
      <point x="776.2533333333333" y="693.28" type="curve"/>
      <point x="816.0266666666666" y="717.6133333333333" type="line"/>
      <point x="182.56" y="717.6133333333333" type="line"/>
      <point x="182.56" y="680.92" type="line"/>
      <point x="896.5733333333334" y="680.92" type="line"/>
      <point x="884.2133333333334" y="898.2133333333334"/>
      <point x="760.24" y="1044.0"/>
      <point x="546.48" y="1044.0" type="curve" smooth="yes"/>
      <point x="249.12" y="1044.0"/>
      <point x="78.13333333333334" y="792.88"/>
      <point x="78.13333333333334" y="499.64" type="curve" smooth="yes"/>
      <point x="78.13333333333334" y="154.86666666666665"/>
      <point x="261.4666666666667" y="-20.0"/>
      <point x="531.24" y="-20.0" type="curve" smooth="yes"/>
      <point x="660.28" y="-20.0"/>
      <point x="753.28" y="24.653333333333332"/>
      <point x="864.2133333333334" y="151.0" type="curve"/>
      <point x="859.72" y="156.11999999999998" type="line"/>
      <point x="743.7066666666667" y="-25.866666666666667" type="line" smooth="yes"/>
      <point x="645.0" y="-177.45333333333335"/>
      <point x="611.1733333333333" y="-251.8"/>
      <point x="611.1733333333333" y="-326.52" type="curve" smooth="yes"/>
      <point x="611.1733333333333" y="-410.50666666666666"/>
      <point x="663.6533333333333" y="-465.0"/>
      <point x="753.1333333333333" y="-465.0" type="curve" smooth="yes"/>
      <point x="817.6" y="-465.0"/>
      <point x="857.3333333333334" y="-450.90666666666664"/>
      <point x="946.7066666666667" y="-351.41333333333336" type="curve"/>
      <point x="936.96" y="-339.8" type="line"/>
      <point x="887.4666666666667" y="-386.81333333333333"/>
      <point x="846.8266666666667" y="-397.5733333333333"/>
      <point x="807.5600000000001" y="-397.5733333333333" type="curve" smooth="yes"/>
      <point x="731.44" y="-397.5733333333333"/>
      <point x="696.2" y="-354.3333333333333"/>
      <point x="696.2" y="-276.2" type="curve" smooth="yes"/>
      <point x="696.2" y="-208.58666666666667"/>
      <point x="712.4133333333334" y="-145.78666666666666"/>
      <point x="809.9333333333334" y="25.386666666666667" type="curve" smooth="yes"/>
    </contour>
  </outline>
</glyph>
<glyph name="Hbar" format="2">
  <advance width="1580.3066666666666"/>
  <unicode hex="0126"/>
  <outline>
    <contour>
      <point x="376.04" y="51.57333333333334" type="line"/>
      <point x="376.04" y="1378.8" type="line"/>
      <point x="557.5466666666666" y="1411.6533333333334" type="line"/>
      <point x="557.5466666666666" y="1430.0" type="line"/>
      <point x="66.24" y="1430.0" type="line"/>
      <point x="66.24" y="1411.6533333333334" type="line"/>
      <point x="248.37333333333333" y="1378.8" type="line"/>
      <point x="248.37333333333333" y="51.57333333333334" type="line"/>
      <point x="66.24" y="18.346666666666664" type="line"/>
      <point x="66.24" y="0.0" type="line"/>
      <point x="557.5466666666666" y="0.0" type="line"/>
      <point x="557.5466666666666" y="18.346666666666664" type="line"/>
    </contour>
    <contour>
      <point x="1332.56" y="51.57333333333334" type="line"/>
      <point x="1332.56" y="1378.8" type="line"/>
      <point x="1514.0666666666666" y="1411.6533333333334" type="line"/>
      <point x="1514.0666666666666" y="1430.0" type="line"/>
      <point x="1022.76" y="1430.0" type="line"/>
      <point x="1022.76" y="1411.6533333333334" type="line"/>
      <point x="1204.8933333333332" y="1378.8" type="line"/>
      <point x="1204.8933333333332" y="51.57333333333334" type="line"/>
      <point x="1022.76" y="18.346666666666664" type="line"/>
      <point x="1022.76" y="0.0" type="line"/>
      <point x="1514.0666666666666" y="0.0" type="line"/>
      <point x="1514.0666666666666" y="18.346666666666664" type="line"/>
    </contour>
    <contour>
      <point x="66.24" y="1059.1333333333332" type="line"/>
      <point x="1514.0666666666666" y="1059.1333333333332" type="line"/>
      <point x="1514.0666666666666" y="1115.6133333333332" type="line"/>
      <point x="66.24" y="1115.6133333333332" type="line"/>
    </contour>
    <contour>
      <point x="290.38666666666666" y="721.28" type="line"/>
      <point x="1288.8000000000002" y="721.28" type="line"/>
      <point x="1288.8000000000002" y="762.48" type="line"/>
      <point x="290.38666666666666" y="762.48" type="line"/>
    </contour>
  </outline>
</glyph>
<glyph name="dotlessi" format="2">
  <advance width="490.96"/>
  <unicode hex="0131"/>
  <anchor x="234.54666666666668" y="1024.0" name="top"/>
  <anchor x="254.54666666666665" y="0.0" name="bottom"/>
  <anchor x="318.01333333333326" y="0.0" name="right"/>
  <outline>
    <contour>
      <point x="312.70666666666665" y="1055.0" type="line"/>
      <point x="306.2" y="1055.0" type="line"/>
      <point x="39.599999999999994" y="1003.48" type="line"/>
      <point x="39.599999999999994" y="987.3599999999999" type="line"/>
      <point x="100.6" y="965.1020922167264"/>
      <point x="173.76" y="940.4807754846779"/>
      <point x="195.76" y="932.4533333333334" type="curve"/>
      <point x="195.76" y="38.82666666666667" type="line"/>
      <point x="49.0" y="16.346666666666668" type="line"/>
      <point x="49.0" y="0.0" type="line"/>
      <point x="456.96" y="0.0" type="line"/>
      <point x="456.96" y="16.346666666666668" type="line"/>
      <point x="312.70666666666665" y="38.82666666666667" type="line"/>
      <point x="312.70666666666665" y="937.7066666666667" type="line"/>
    </contour>
  </outline>
</glyph>
<glyph name="kgreenlandic" format="2">
  <advance width="1105.6266666666666"/>
  <unicode hex="0138"/>
  <outline>
    <contour>
      <point x="320.4666666666667" y="513.52" type="line"/>
      <point x="852.1866666666667" y="36.453333333333326" type="line"/>
      <point x="717.6933333333333" y="16.346666666666668" type="line"/>
      <point x="717.6933333333333" y="0.0" type="line"/>
      <point x="1125.0" y="0.0" type="line"/>
      <point x="1125.0" y="16.346666666666668" type="line"/>
      <point x="1006.3600000000001" y="37.199999999999996" type="line"/>
      <point x="403.94666666666666" y="585.6933333333334" type="line"/>
      <point x="382.62666666666667" y="553.9733333333334" type="line"/>
      <point x="913.1466666666666" y="981.8133333333333" type="line"/>
      <point x="1057.6399999999999" y="1005.4133333333333" type="line"/>
      <point x="1057.6399999999999" y="1024.0" type="line"/>
      <point x="703.0933333333334" y="1024.0" type="line"/>
      <point x="703.0933333333334" y="1005.4133333333333" type="line"/>
      <point x="852.6" y="982.56" type="line"/>
      <point x="323.94666666666666" y="548.8666666666667" type="line"/>
      <point x="270.94666666666666" y="548.8666666666667" type="line"/>
      <point x="270.94666666666666" y="513.52" type="line"/>
    </contour>
    <contour>
      <point x="309.08" y="1055.0" type="line"/>
      <point x="302.5733333333333" y="1055.0" type="line"/>
      <point x="35.973333333333336" y="1003.48" type="line"/>
      <point x="35.973333333333336" y="987.3599999999999" type="line"/>
      <point x="96.97333333333333" y="965.1020922167264"/>
      <point x="170.13333333333333" y="940.4807754846779"/>
      <point x="192.13333333333333" y="932.4533333333334" type="curve"/>
      <point x="192.13333333333333" y="38.82666666666667" type="line"/>
      <point x="45.37333333333333" y="16.346666666666668" type="line"/>
      <point x="45.37333333333333" y="0.0" type="line"/>
      <point x="453.3333333333333" y="0.0" type="line"/>
      <point x="453.3333333333333" y="16.346666666666668" type="line"/>
      <point x="309.08" y="38.82666666666667" type="line"/>
      <point x="309.08" y="937.7066666666667" type="line"/>
    </contour>
  </outline>
</glyph>
<glyph name="Eng" format="2">
  <advance width="1544.2133333333334"/>
  <unicode hex="014A"/>
  <outline>
    <contour>
      <point x="1293.96" y="170.0933333333333" type="line"/>
      <point x="378.53333333333336" y="1430.0" type="line"/>
      <point x="52.120000000000005" y="1430.0" type="line"/>
      <point x="52.120000000000005" y="1411.6533333333334" type="line"/>
      <point x="249.24" y="1372.8266666666666" type="line"/>
      <point x="249.24" y="51.57333333333334" type="line"/>
      <point x="67.10666666666667" y="18.346666666666664" type="line"/>
      <point x="67.10666666666667" y="0.0" type="line"/>
      <point x="481.65333333333336" y="0.0" type="line"/>
      <point x="481.65333333333336" y="18.346666666666664" type="line"/>
      <point x="292.68" y="51.57333333333334" type="line"/>
      <point x="292.68" y="1376.9199999999998" type="line"/>
      <point x="273.4533333333333" y="1363.9866666666667" type="line"/>
      <point x="1282.7466666666667" y="-20.0" type="line"/>
    </contour>
    <contour>
      <point x="1308.2133333333334" y="-0.45333333333333314" type="curve" smooth="yes"/>
      <point x="1308.2133333333334" y="1378.4266666666667" type="line"/>
      <point x="1490.3466666666666" y="1411.6533333333334" type="line"/>
      <point x="1490.3466666666666" y="1430.0" type="line"/>
      <point x="1075.8" y="1430.0" type="line"/>
      <point x="1075.8" y="1411.6533333333334" type="line"/>
      <point x="1264.7733333333335" y="1378.4266666666667" type="line"/>
      <point x="1264.7733333333335" y="5.106666666666666" type="line" smooth="yes"/>
      <point x="1264.7733333333335" y="-294.40000000000003"/>
      <point x="1146.9733333333334" y="-374.66666666666663"/>
      <point x="1020.1733333333333" y="-374.66666666666663" type="curve" smooth="yes"/>
      <point x="946.3199999999999" y="-374.66666666666663"/>
      <point x="886.0933333333334" y="-333.3333333333333"/>
      <point x="868.2133333333334" y="-333.3333333333333" type="curve" smooth="yes"/>
      <point x="846.6133333333333" y="-333.3333333333333"/>
      <point x="820.7733333333333" y="-348.5466666666667"/>
      <point x="820.7733333333333" y="-385.74666666666667" type="curve" smooth="yes"/>
      <point x="820.7733333333333" y="-429.32"/>
      <point x="854.6266666666667" y="-465.0"/>
      <point x="929.1466666666666" y="-465.0" type="curve" smooth="yes"/>
      <point x="1141.5733333333335" y="-465.0"/>
      <point x="1308.2133333333334" y="-344.81333333333333"/>
    </contour>
  </outline>
</glyph>
<glyph name="eng" format="2">
  <advance width="1110.2666666666667"/>
  <unicode hex="014B"/>
  <outline>
    <contour>
      <point x="309.08" y="876.92" type="line"/>
      <point x="309.08" y="1055.0" type="line"/>
      <point x="302.5733333333333" y="1055.0" type="line"/>
      <point x="35.973333333333336" y="1003.48" type="line"/>
      <point x="35.973333333333336" y="987.36" type="line"/>
      <point x="126.97333333333331" y="954.1555801921655"/>
      <point x="170.13333333333333" y="940.4807754846779"/>
      <point x="192.13333333333333" y="932.4533333333333" type="curve"/>
      <point x="192.13333333333333" y="38.82666666666667" type="line"/>
      <point x="45.37333333333333" y="16.346666666666668" type="line"/>
      <point x="45.37333333333333" y="0.0" type="line"/>
      <point x="453.3333333333333" y="0.0" type="line"/>
      <point x="453.3333333333333" y="16.346666666666668" type="line"/>
      <point x="309.08" y="38.82666666666667" type="line"/>
    </contour>
    <contour>
      <point x="860.1866666666666" y="-63.82666666666667" type="line" smooth="yes"/>
      <point x="860.1866666666666" y="-226.4"/>
      <point x="851.1733333333333" y="-254.6533333333333"/>
      <point x="682.44" y="-451.0133333333333" type="curve"/>
      <point x="697.8" y="-465.0" type="line"/>
      <point x="968.8933333333333" y="-209.21333333333334"/>
      <point x="977.1333333333333" y="-173.2133333333333"/>
      <point x="977.1333333333333" y="-29.373333333333335" type="curve" smooth="yes"/>
      <point x="977.1333333333333" y="715.7466666666667" type="line" smooth="yes"/>
      <point x="977.1333333333333" y="950.8933333333333"/>
      <point x="898.0133333333333" y="1044.0"/>
      <point x="692.6133333333333" y="1044.0" type="curve" smooth="yes"/>
      <point x="574.24" y="1044.0"/>
      <point x="484.84000000000003" y="1014.5066666666667"/>
      <point x="285.8666666666666" y="877.68" type="curve"/>
      <point x="290.71999999999997" y="860.44" type="line"/>
      <point x="373.4" y="911.12"/>
      <point x="502.34666666666664" y="952.1333333333333"/>
      <point x="621.76" y="952.1333333333333" type="curve" smooth="yes"/>
      <point x="794.0666666666667" y="952.1333333333333"/>
      <point x="860.1866666666666" y="885.3866666666667"/>
      <point x="860.1866666666666" y="686.84" type="curve" smooth="yes"/>
    </contour>
  </outline>
</glyph>
<glyph name="scedilla" format="2">
  <advance width="805.4133333333333"/>
  <unicode hex="015F"/>
  <outline>
    <contour>
      <point x="440.81333333333333" y="1044.0" type="curve" smooth="yes"/>
      <point x="261.58666666666664" y="1044.0"/>
      <point x="112.62666666666667" y="943.4933333333333"/>
      <point x="112.62666666666667" y="777.4" type="curve" smooth="yes"/>
      <point x="112.62666666666667" y="613.6933333333333"/>
      <point x="218.25333333333333" y="544.8933333333333"/>
      <point x="372.7733333333333" y="487.56" type="curve" smooth="yes"/>
      <point x="527.2933333333333" y="430.22666666666663"/>
      <point x="629.9200000000001" y="377.38666666666666"/>
      <point x="629.9200000000001" y="237.53333333333336" type="curve" smooth="yes"/>
      <point x="629.9200000000001" y="104.16"/>
      <point x="531.9466666666666" y="14.719999999999999"/>
      <point x="391.12" y="14.719999999999999" type="curve" smooth="yes"/>
      <point x="300.5466666666667" y="14.719999999999999"/>
      <point x="225.50666666666666" y="46.25333333333333"/>
      <point x="184.7866666666667" y="90.52000000000001" type="curve"/>
      <point x="232.28" y="22.48" type="line"/>
      <point x="88.84" y="324.29333333333335" type="line"/>
      <point x="67.62666666666667" y="324.29333333333335" type="line"/>
      <point x="127.13333333333333" y="33.10666666666667" type="line"/>
      <point x="196.74666666666667" y="-3.1333333333333333"/>
      <point x="274.74666666666667" y="-20.0"/>
      <point x="367.97333333333336" y="-20.0" type="curve" smooth="yes"/>
      <point x="572.9733333333334" y="-20.0"/>
      <point x="723.5333333333333" y="111.62666666666667"/>
      <point x="723.5333333333333" y="284.08" type="curve" smooth="yes"/>
      <point x="723.5333333333333" y="456.5466666666667"/>
      <point x="611.5066666666667" y="530.72"/>
      <point x="450.1333333333333" y="592.2933333333333" type="curve" smooth="yes"/>
      <point x="288.38666666666666" y="653.8666666666667"/>
      <point x="203.35999999999999" y="703.0933333333334"/>
      <point x="203.35999999999999" y="823.32" type="curve" smooth="yes"/>
      <point x="203.35999999999999" y="936.2266666666667"/>
      <point x="281.0133333333334" y="1011.9066666666666"/>
      <point x="426.46666666666664" y="1011.9066666666666" type="curve" smooth="yes"/>
      <point x="498.4266666666667" y="1011.9066666666666"/>
      <point x="553.8133333333334" y="983.9066666666668"/>
      <point x="612.0266666666666" y="921.3199999999999" type="curve"/>
      <point x="564.7333333333333" y="977.48" type="line"/>
      <point x="674.3066666666666" y="724.5333333333333" type="line"/>
      <point x="694.6533333333333" y="724.5333333333333" type="line"/>
      <point x="663.0266666666668" y="980.36" type="line"/>
      <point x="589.4133333333333" y="1023.3733333333333"/>
      <point x="523.04" y="1044.0"/>
    </contour>
    <contour>
      <point x="313.62666666666667" y="-465.0" type="curve" smooth="yes"/>
      <point x="439.6" y="-465.0"/>
      <point x="543.8133333333334" y="-392.4"/>
      <point x="543.8133333333334" y="-285.04" type="curve" smooth="yes"/>
      <point x="543.8133333333334" y="-225.42666666666668"/>
      <point x="506.18666666666667" y="-166.68"/>
      <point x="344.2266666666667" y="-117.42666666666666" type="curve"/>
      <point x="335.52" y="-157.34666666666666" type="line"/>
      <point x="445.32" y="7.84" type="line"/>
      <point x="412.0933333333333" y="7.84" type="line"/>
      <point x="279.04" y="-184.46666666666667" type="line"/>
      <point x="279.04" y="-188.84" type="line"/>
      <point x="434.50666666666666" y="-230.6"/>
      <point x="473.0133333333333" y="-279.1066666666666"/>
      <point x="473.0133333333333" y="-333.12" type="curve" smooth="yes"/>
      <point x="473.0133333333333" y="-388.88"/>
      <point x="422.12" y="-429.8933333333334"/>
      <point x="368.49333333333334" y="-429.8933333333334" type="curve" smooth="yes"/>
      <point x="295.1066666666666" y="-429.8933333333334"/>
      <point x="257.64" y="-363.29333333333335"/>
      <point x="242.26666666666668" y="-363.29333333333335" type="curve" smooth="yes"/>
      <point x="217.02666666666667" y="-363.29333333333335"/>
      <point x="203.90666666666667" y="-384.16"/>
      <point x="203.90666666666667" y="-405.40000000000003" type="curve" smooth="yes"/>
      <point x="203.90666666666667" y="-439.38666666666666"/>
      <point x="232.14666666666668" y="-465.0"/>
    </contour>
  </outline>
</glyph>
<glyph name="uni0162" format="2">
  <advance width="1364.2933333333333"/>
  <unicode hex="0162"/>
  <outline>
    <contour>
      <point x="618.0" y="1410.0266666666666" type="line"/>
      <point x="618.0" y="51.57333333333334" type="line"/>
      <point x="435.8666666666667" y="18.346666666666664" type="line"/>
      <point x="435.8666666666667" y="0.0" type="line"/>
      <point x="927.1733333333333" y="0.0" type="line"/>
      <point x="927.1733333333333" y="18.346666666666664" type="line"/>
      <point x="745.6666666666666" y="51.57333333333334" type="line"/>
      <point x="745.6666666666666" y="1410.0266666666666" type="line"/>
    </contour>
    <contour>
      <point x="1225.84" y="1388.8" type="line"/>
      <point x="1156.7066666666667" y="1407.8" type="line"/>
      <point x="1300.1866666666667" y="1025.6" type="line"/>
      <point x="1322.2933333333333" y="1030.0933333333332" type="line"/>
      <point x="1267.4399999999998" y="1499.8666666666666" type="line"/>
      <point x="1256.96" y="1499.8666666666666" type="line"/>
      <point x="1155.7066666666667" y="1419.0133333333333" type="line"/>
      <point x="1200.5866666666668" y="1430.0" type="line"/>
      <point x="163.70666666666668" y="1430.0" type="line"/>
      <point x="208.58666666666667" y="1419.0133333333333" type="line"/>
      <point x="107.33333333333333" y="1499.8666666666666" type="line"/>
      <point x="96.85333333333334" y="1499.8666666666666" type="line"/>
      <point x="42.0" y="1030.0933333333332" type="line"/>
      <point x="64.10666666666667" y="1025.6" type="line"/>
      <point x="207.58666666666664" y="1407.8" type="line"/>
      <point x="138.45333333333335" y="1388.8" type="line"/>
    </contour>
    <contour>
      <point x="588.16" y="-465.0" type="curve" smooth="yes"/>
      <point x="714.1333333333333" y="-465.0"/>
      <point x="818.3466666666667" y="-392.4"/>
      <point x="818.3466666666667" y="-285.04" type="curve" smooth="yes"/>
      <point x="818.3466666666667" y="-225.42666666666668"/>
      <point x="780.7199999999999" y="-166.68"/>
      <point x="618.76" y="-117.42666666666666" type="curve"/>
      <point x="610.0533333333333" y="-157.34666666666666" type="line"/>
      <point x="719.8533333333332" y="7.84" type="line"/>
      <point x="686.6266666666667" y="7.84" type="line"/>
      <point x="553.5733333333334" y="-184.46666666666667" type="line"/>
      <point x="553.5733333333334" y="-188.84" type="line"/>
      <point x="709.0400000000001" y="-230.6"/>
      <point x="747.5466666666667" y="-279.1066666666666"/>
      <point x="747.5466666666667" y="-333.12" type="curve" smooth="yes"/>
      <point x="747.5466666666667" y="-388.88"/>
      <point x="696.6533333333333" y="-429.8933333333334"/>
      <point x="643.0266666666666" y="-429.8933333333334" type="curve" smooth="yes"/>
      <point x="569.64" y="-429.8933333333334"/>
      <point x="532.1733333333333" y="-363.29333333333335"/>
      <point x="516.8" y="-363.29333333333335" type="curve" smooth="yes"/>
      <point x="491.56" y="-363.29333333333335"/>
      <point x="478.44" y="-384.16"/>
      <point x="478.44" y="-405.40000000000003" type="curve" smooth="yes"/>
      <point x="478.44" y="-439.38666666666666"/>
      <point x="506.67999999999995" y="-465.0"/>
    </contour>
  </outline>
</glyph>
<glyph name="Tbar" format="2">
  <advance width="1366.8"/>
  <unicode hex="0166"/>
  <outline>
    <contour>
      <point x="316.3333333333333" y="708.76" type="line"/>
      <point x="1049.84" y="708.76" type="line"/>
      <point x="1049.84" y="765.24" type="line"/>
      <point x="316.3333333333333" y="765.24" type="line"/>
    </contour>
    <contour>
      <point x="619.2533333333333" y="1410.0266666666666" type="line"/>
      <point x="619.2533333333333" y="51.57333333333334" type="line"/>
      <point x="437.12" y="18.346666666666664" type="line"/>
      <point x="437.12" y="0.0" type="line"/>
      <point x="928.4266666666666" y="0.0" type="line"/>
      <point x="928.4266666666666" y="18.346666666666664" type="line"/>
      <point x="746.92" y="51.57333333333334" type="line"/>
      <point x="746.92" y="1410.0266666666666" type="line"/>
    </contour>
    <contour>
      <point x="1227.0933333333332" y="1388.8" type="line"/>
      <point x="1157.96" y="1407.8" type="line"/>
      <point x="1301.44" y="1025.6" type="line"/>
      <point x="1323.5466666666666" y="1030.0933333333332" type="line"/>
      <point x="1268.6933333333332" y="1499.8666666666666" type="line"/>
      <point x="1258.2133333333334" y="1499.8666666666666" type="line"/>
      <point x="1156.96" y="1419.0133333333333" type="line"/>
      <point x="1201.8400000000001" y="1430.0" type="line"/>
      <point x="164.96" y="1430.0" type="line"/>
      <point x="209.84" y="1419.0133333333333" type="line"/>
      <point x="108.58666666666666" y="1499.8666666666666" type="line"/>
      <point x="98.10666666666667" y="1499.8666666666666" type="line"/>
      <point x="43.25333333333333" y="1030.0933333333332" type="line"/>
      <point x="65.36" y="1025.6" type="line"/>
      <point x="208.83999999999997" y="1407.8" type="line"/>
      <point x="139.70666666666668" y="1388.8" type="line"/>
    </contour>
  </outline>
</glyph>
<glyph name="tbar" format="2">
  <advance width="671.2266666666667"/>
  <unicode hex="0167"/>
  <outline>
    <contour>
      <point x="43.0" y="532.1333333333333" type="line"/>
      <point x="596.6266666666667" y="532.1333333333333" type="line"/>
      <point x="596.6266666666667" y="588.6133333333333" type="line"/>
      <point x="43.0" y="588.6133333333333" type="line"/>
    </contour>
    <contour>
      <point x="290.96" y="235.68" type="curve" smooth="yes"/>
      <point x="290.96" y="987.3733333333333" type="line"/>
      <point x="290.96" y="1143.2666666666667" type="line"/>
      <point x="285.0933333333333" y="1143.2666666666667" type="line"/>
      <point x="146.0" y="1067.8266666666666"/>
      <point x="132.98857142857145" y="1053.8666666666666"/>
      <point x="41.373333333333335" y="1009.3066666666666" type="curve"/>
      <point x="41.373333333333335" y="997.1866666666666" type="line"/>
      <point x="174.01333333333335" y="931.72" type="line"/>
      <point x="174.01333333333335" y="214.8133333333333" type="line" smooth="yes"/>
      <point x="174.01333333333335" y="58.266666666666666"/>
      <point x="268.85333333333335" y="-15.359999999999998"/>
      <point x="376.58666666666664" y="-15.359999999999998" type="curve" smooth="yes"/>
      <point x="459.94666666666666" y="-15.359999999999998"/>
      <point x="505.53333333333336" y="1.853333333333333"/>
      <point x="678.3733333333333" y="88.03999999999999" type="curve"/>
      <point x="678.3733333333333" y="104.76" type="line"/>
      <point x="587.36" y="80.64"/>
      <point x="532.3733333333333" y="71.64"/>
      <point x="464.97333333333336" y="71.64" type="curve" smooth="yes"/>
      <point x="349.81333333333333" y="71.64"/>
      <point x="290.96" y="128.53333333333333"/>
    </contour>
    <contour>
      <point x="254.65333333333334" y="948.5866666666667" type="line"/>
      <point x="638.1333333333333" y="948.5866666666667" type="line"/>
      <point x="650.3733333333333" y="1024.0" type="line"/>
      <point x="254.65333333333334" y="1024.0" type="line"/>
    </contour>
  </outline>
</glyph>
<glyph name="uni01EB" format="2">
  <advance width="1121.7066666666667"/>
  <unicode hex="01EB"/>
  <outline>
    <contour>
      <point x="559.7333333333333" y="11.466666666666665" type="curve" smooth="yes"/>
      <point x="342.7866666666667" y="11.466666666666665"/>
      <point x="204.56" y="201.39999999999998"/>
      <point x="204.56" y="506.73333333333335" type="curve" smooth="yes"/>
      <point x="204.56" y="817.9599999999999"/>
      <point x="342.9066666666667" y="1012.5333333333334"/>
      <point x="561.9733333333334" y="1012.5333333333334" type="curve" smooth="yes"/>
      <point x="778.92" y="1012.5333333333334"/>
      <point x="917.1466666666666" y="822.6"/>
      <point x="917.1466666666666" y="517.2666666666667" type="curve" smooth="yes"/>
      <point x="917.1466666666666" y="206.04"/>
      <point x="778.8" y="11.466666666666665"/>
    </contour>
    <contour>
      <point x="557.7333333333333" y="-20.0" type="curve" smooth="yes"/>
      <point x="829.1066666666667" y="-20.0"/>
      <point x="1045.5733333333333" y="190.48"/>
      <point x="1045.5733333333333" y="517.2666666666667" type="curve" smooth="yes"/>
      <point x="1045.5733333333333" y="837.7866666666666"/>
      <point x="827.5600000000001" y="1044.0"/>
      <point x="563.9733333333334" y="1044.0" type="curve" smooth="yes"/>
      <point x="290.36" y="1044.0"/>
      <point x="76.13333333333334" y="833.1466666666666"/>
      <point x="76.13333333333334" y="506.73333333333335" type="curve" smooth="yes"/>
      <point x="76.13333333333334" y="186.58666666666667"/>
      <point x="296.38666666666666" y="-20.0"/>
    </contour>
    <contour>
      <point x="578.6933333333334" y="-82.18666666666667" type="curve" smooth="yes"/>
      <point x="612.2133333333333" y="0.0" type="line"/>
      <point x="586.7466666666667" y="0.0" type="line"/>
      <point x="517.3466666666667" y="-121.94666666666667" type="line" smooth="yes"/>
      <point x="447.50666666666666" y="-242.92"/>
      <point x="427.52" y="-290.28000000000003"/>
      <point x="427.52" y="-341.8933333333333" type="curve" smooth="yes"/>
      <point x="427.52" y="-408.50666666666666"/>
      <point x="470.26666666666665" y="-465.0"/>
      <point x="562.12" y="-465.0" type="curve" smooth="yes"/>
      <point x="626.9866666666667" y="-465.0"/>
      <point x="666.0933333333332" y="-440.88"/>
      <point x="747.9466666666667" y="-350.7866666666667" type="curve"/>
      <point x="738.2" y="-339.1733333333333" type="line"/>
      <point x="691.2133333333334" y="-379.29333333333335"/>
      <point x="657.4666666666667" y="-388.17333333333335"/>
      <point x="622.5866666666667" y="-388.17333333333335" type="curve" smooth="yes"/>
      <point x="560.5866666666667" y="-388.17333333333335"/>
      <point x="527.4666666666667" y="-351.92"/>
      <point x="527.4666666666667" y="-296.04" type="curve" smooth="yes"/>
      <point x="527.4666666666667" y="-245.7866666666667"/>
      <point x="533.4666666666666" y="-190.6533333333333"/>
    </contour>
  </outline>
</glyph>
<glyph name="uni0237" format="2">
  <advance width="448.9733333333333"/>
  <unicode hex="0237"/>
  <anchor x="217.2133333333333" y="1024.0" name="top"/>
  <anchor x="203.4" y="-445.0" name="bottom"/>
  <outline>
    <contour>
      <point x="185.52" y="932.4533333333334" type="curve"/>
      <point x="185.52" y="-63.82666666666667" type="line" smooth="yes"/>
      <point x="185.52" y="-226.4"/>
      <point x="176.50666666666666" y="-254.6533333333333"/>
      <point x="7.773333333333335" y="-451.0133333333333" type="curve"/>
      <point x="23.133333333333333" y="-465.0" type="line"/>
      <point x="294.22666666666663" y="-209.21333333333334"/>
      <point x="302.46666666666664" y="-173.2133333333333"/>
      <point x="302.46666666666664" y="-29.373333333333335" type="curve" smooth="yes"/>
      <point x="302.46666666666664" y="937.7066666666667" type="line"/>
      <point x="302.46666666666664" y="1055.0" type="line"/>
      <point x="295.96000000000004" y="1055.0" type="line"/>
      <point x="29.360000000000003" y="1003.48" type="line"/>
      <point x="29.360000000000003" y="987.3599999999999" type="line"/>
      <point x="90.36" y="965.1020922167264"/>
      <point x="163.52" y="940.4807754846779"/>
    </contour>
  </outline>
</glyph>
<glyph name="uni0307" format="2">
  <unicode hex="0307"/>
  <anchor x="0.0" y="1024.0" name="_top"/>
  <anchor x="0.0" y="1376.0" name="top"/>
  <anchor x="0.0" y="1301.0" name="_mid"/>
  <outline>
    <contour>
      <point x="0.0" y="1214.0533333333333" type="curve" smooth="yes"/>
      <point x="54.093333333333334" y="1214.0533333333333"/>
      <point x="87.69333333333334" y="1254.5333333333333"/>
      <point x="87.69333333333334" y="1301.0" type="curve" smooth="yes"/>
      <point x="87.69333333333334" y="1347.0933333333332"/>
      <point x="54.093333333333334" y="1387.9466666666667"/>
      <point x="0.0" y="1387.9466666666667" type="curve" smooth="yes"/>
      <point x="-54.093333333333334" y="1387.9466666666667"/>
      <point x="-87.69333333333334" y="1347.0933333333332"/>
      <point x="-87.69333333333334" y="1301.0" type="curve" smooth="yes"/>
      <point x="-87.69333333333334" y="1254.5333333333333"/>
      <point x="-54.093333333333334" y="1214.0533333333333"/>
    </contour>
  </outline>
</glyph>
<glyph name="uni0312" format="2">
  <unicode hex="0312"/>
  <anchor x="0.0" y="1024.0" name="_top"/>
  <anchor x="0.0" y="1464.0" name="top"/>
  <outline>
    <contour>
      <point x="100.42666666666666" y="1213.8" type="curve" smooth="yes"/>
      <point x="100.42666666666666" y="1234.2933333333333"/>
      <point x="-18.533333333333335" y="1231.5466666666669"/>
      <point x="-18.533333333333335" y="1314.9333333333334" type="curve" smooth="yes"/>
      <point x="-18.533333333333335" y="1377.08"/>
      <point x="29.986666666666665" y="1429.6133333333335"/>
      <point x="131.32" y="1450.6399999999999" type="curve"/>
      <point x="131.32" y="1479.0" type="line"/>
      <point x="-23.053333333333327" y="1451.3466666666666"/>
      <point x="-91.44" y="1366.8799999999999"/>
      <point x="-91.44" y="1255.48" type="curve" smooth="yes"/>
      <point x="-91.44" y="1179.4933333333333"/>
      <point x="-49.46666666666667" y="1127.0"/>
      <point x="10.506666666666664" y="1127.0" type="curve" smooth="yes"/>
      <point x="64.84" y="1127.0"/>
      <point x="100.42666666666666" y="1163.6"/>
    </contour>
  </outline>
</glyph>
<glyph name="uni0324" format="2">
  <unicode hex="0324"/>
  <anchor x="0.0" y="0.0" name="_bottom"/>
  <anchor x="0.0" y="-465.0" name="bottom"/>
  <outline>
    <contour>
      <point x="-202.62666666666667" y="-303.08" type="curve" smooth="yes"/>
      <point x="-149.65333333333334" y="-303.08"/>
      <point x="-116.8" y="-262.9733333333333"/>
      <point x="-116.8" y="-218.0" type="curve" smooth="yes"/>
      <point x="-116.8" y="-172.65333333333334"/>
      <point x="-149.65333333333334" y="-132.54666666666668"/>
      <point x="-202.62666666666667" y="-132.54666666666668" type="curve" smooth="yes"/>
      <point x="-255.60000000000002" y="-132.54666666666668"/>
      <point x="-288.4533333333333" y="-172.65333333333334"/>
      <point x="-288.4533333333333" y="-218.0" type="curve" smooth="yes"/>
      <point x="-288.4533333333333" y="-262.9733333333333"/>
      <point x="-255.60000000000002" y="-303.08"/>
    </contour>
    <contour>
      <point x="202.62666666666667" y="-303.08" type="curve" smooth="yes"/>
      <point x="255.60000000000002" y="-303.08"/>
      <point x="288.4533333333333" y="-262.9733333333333"/>
      <point x="288.4533333333333" y="-218.0" type="curve" smooth="yes"/>
      <point x="288.4533333333333" y="-172.65333333333334"/>
      <point x="255.60000000000002" y="-132.54666666666668"/>
      <point x="202.62666666666667" y="-132.54666666666668" type="curve" smooth="yes"/>
      <point x="149.65333333333334" y="-132.54666666666668"/>
      <point x="116.8" y="-172.65333333333334"/>
      <point x="116.8" y="-218.0" type="curve" smooth="yes"/>
      <point x="116.8" y="-262.9733333333333"/>
      <point x="149.65333333333334" y="-303.08"/>
    </contour>
  </outline>
</glyph>
<glyph name="uni0327" format="2">
  <unicode hex="0327"/>
  <anchor x="0.0" y="0.0" name="_bottom"/>
  <anchor x="0.0" y="-465.0" name="bottom"/>
  <outline>
    <contour>
      <point x="-93.98666666666668" y="-465.0" type="curve" smooth="yes"/>
      <point x="31.986666666666668" y="-465.0"/>
      <point x="136.20000000000002" y="-392.4"/>
      <point x="136.20000000000002" y="-285.04" type="curve" smooth="yes"/>
      <point x="136.20000000000002" y="-225.42666666666668"/>
      <point x="98.57333333333334" y="-166.68"/>
      <point x="-63.38666666666667" y="-117.42666666666666" type="curve"/>
      <point x="-72.09333333333333" y="-157.34666666666666" type="line"/>
      <point x="37.70666666666667" y="7.84" type="line"/>
      <point x="4.479999999999997" y="7.84" type="line"/>
      <point x="-128.57333333333332" y="-184.46666666666667" type="line"/>
      <point x="-128.57333333333332" y="-188.84" type="line"/>
      <point x="26.893333333333334" y="-230.6"/>
      <point x="65.4" y="-279.1066666666666"/>
      <point x="65.4" y="-333.12" type="curve" smooth="yes"/>
      <point x="65.4" y="-388.88"/>
      <point x="14.506666666666666" y="-429.8933333333334"/>
      <point x="-39.120000000000005" y="-429.8933333333334" type="curve" smooth="yes"/>
      <point x="-112.50666666666667" y="-429.8933333333334"/>
      <point x="-149.97333333333333" y="-363.29333333333335"/>
      <point x="-165.34666666666666" y="-363.29333333333335" type="curve" smooth="yes"/>
      <point x="-190.58666666666667" y="-363.29333333333335"/>
      <point x="-203.70666666666665" y="-384.16"/>
      <point x="-203.70666666666665" y="-405.40000000000003" type="curve" smooth="yes"/>
      <point x="-203.70666666666665" y="-439.38666666666666"/>
      <point x="-175.46666666666667" y="-465.0"/>
    </contour>
  </outline>
</glyph>
<glyph name="uni0335" format="2">
  <unicode hex="0335"/>
  <anchor x="0.0" y="1207.0" name="_center"/>
  <outline>
    <contour>
      <point x="-335.5466666666666" y="1178.76" type="line"/>
      <point x="335.5466666666666" y="1178.76" type="line"/>
      <point x="335.5466666666666" y="1235.24" type="line"/>
      <point x="-335.5466666666666" y="1235.24" type="line"/>
    </contour>
  </outline>
</glyph>
<glyph name="endash" format="2">
  <advance width="969.2"/>
  <unicode hex="2013"/>
  <outline>
    <contour>
      <point x="74.60000000000001" y="550.9866666666667" type="line"/>
      <point x="74.60000000000001" y="493.0133333333334" type="line"/>
      <point x="894.6" y="493.0133333333334" type="line"/>
      <point x="894.6" y="550.9866666666667" type="line"/>
    </contour>
  </outline>
</glyph>
<glyph name="emdash" format="2">
  <advance width="1299.2"/>
  <unicode hex="2014"/>
  <outline>
    <contour>
      <point x="74.60000000000001" y="550.9866666666667" type="line"/>
      <point x="74.60000000000001" y="493.0133333333334" type="line"/>
      <point x="1224.6" y="493.0133333333334" type="line"/>
      <point x="1224.6" y="550.9866666666667" type="line"/>
    </contour>
  </outline>
</glyph>
<glyph name="quoteleft" format="2">
  <advance width="405.47999999999996"/>
  <unicode hex="2018"/>
  <outline>
    <contour>
      <point x="336.85333333333335" y="1424.64" type="curve"/>
      <point x="316.8533333333333" y="1447.12" type="line"/>
      <point x="171.24" y="1360.3866666666668"/>
      <point x="84.38666666666667" y="1242.2800000000002"/>
      <point x="84.38666666666667" y="1125.8266666666666" type="curve" smooth="yes"/>
      <point x="84.38666666666667" y="1034.7466666666667"/>
      <point x="132.85333333333332" y="984.52"/>
      <point x="200.30666666666667" y="984.52" type="curve" smooth="yes"/>
      <point x="255.0" y="984.52"/>
      <point x="294.2133333333333" y="1023.48"/>
      <point x="294.2133333333333" y="1077.0533333333333" type="curve" smooth="yes"/>
      <point x="294.2133333333333" y="1093.8"/>
      <point x="176.52" y="1116.7866666666666"/>
      <point x="176.52" y="1198.0" type="curve" smooth="yes"/>
      <point x="176.52" y="1283.0"/>
      <point x="225.89333333333335" y="1356.1333333333332"/>
    </contour>
  </outline>
</glyph>
<glyph name="guilsinglleft" format="2">
  <advance width="544.7066666666666"/>
  <unicode hex="2039"/>
  <outline>
    <contour>
      <point x="164.76" y="580.0799999999999" type="line"/>
      <point x="164.76" y="463.92" type="line"/>
      <point x="460.5733333333333" y="925.4666666666667" type="line"/>
      <point x="445.08" y="937.84" type="line"/>
      <point x="60.25333333333333" y="527.7466666666667" type="line"/>
      <point x="60.25333333333333" y="516.2533333333333" type="line"/>
      <point x="445.08" y="106.16" type="line"/>
      <point x="460.5733333333333" y="118.53333333333333" type="line"/>
    </contour>
  </outline>
</glyph>
<glyph name="fraction" format="2">
  <advance width="160.0"/>
  <unicode hex="2044"/>
  <outline>
    <contour>
      <point x="-443.7333333333333" y="0.0" type="line"/>
      <point x="-385.8933333333334" y="0.0" type="line"/>
      <point x="608.1066666666667" y="1430.0" type="line"/>
      <point x="550.2666666666667" y="1430.0" type="line"/>
    </contour>
  </outline>
</glyph>
<glyph name="uni2074" format="2">
  <advance width="674.7199999999999"/>
  <unicode hex="2074"/>
  <outline>
    <contour>
      <point x="352.49333333333334" y="1346.2666666666667" type="line"/>
      <point x="352.49333333333334" y="705.8533333333334" type="line"/>
      <point x="194.84" y="677.36" type="line"/>
      <point x="194.84" y="662.0" type="line"/>
      <point x="594.2533333333333" y="662.0" type="line"/>
      <point x="594.2533333333333" y="677.36" type="line"/>
      <point x="450.59999999999997" y="705.8533333333334" type="line"/>
      <point x="450.59999999999997" y="1437.5066666666667" type="line"/>
      <point x="405.73333333333335" y="1437.5066666666667" type="line"/>
      <point x="19.866666666666667" y="931.2133333333334" type="line"/>
      <point x="22.12" y="905.16" type="line"/>
      <point x="610.3466666666666" y="905.16" type="line"/>
      <point x="641.7199999999999" y="992.08" type="line"/>
      <point x="557.7466666666667" y="973.4533333333334" type="line"/>
      <point x="63.72" y="973.4533333333334" type="line"/>
      <point x="69.10666666666667" y="939.9866666666667" type="line"/>
      <point x="382.82666666666665" y="1349.6266666666668" type="line"/>
    </contour>
  </outline>
</glyph>
<glyph name="f_f" format="2">
  <advance width="1218.32"/>
  <unicode hex="FB00"/>
  <outline>
    <contour>
      <point x="484.50666666666666" y="0.0" type="line"/>
      <point x="484.50666666666666" y="16.346666666666668" type="line"/>
      <point x="337.74666666666667" y="38.82666666666667" type="line"/>
      <point x="337.74666666666667" y="1105.8799999999999" type="line" smooth="yes"/>
      <point x="337.74666666666667" y="1293.24"/>
      <point x="428.7866666666667" y="1405.92"/>
      <point x="598.2666666666667" y="1405.92" type="curve" smooth="yes"/>
      <point x="695.0266666666668" y="1405.92"/>
      <point x="760.6400000000001" y="1372.0266666666666"/>
      <point x="829.56" y="1285.1066666666666" type="curve"/>
      <point x="902.1066666666667" y="1366.3733333333332" type="line"/>
      <point x="846.9066666666666" y="1420.9866666666667"/>
      <point x="765.5733333333333" y="1449.6266666666668"/>
      <point x="662.08" y="1449.6266666666668" type="curve" smooth="yes"/>
      <point x="423.90666666666664" y="1449.6266666666668"/>
      <point x="218.56" y="1286.4666666666667"/>
      <point x="218.56" y="997.5466666666666" type="curve" smooth="yes"/>
      <point x="218.56" y="38.82666666666667" type="line"/>
      <point x="71.80000000000001" y="16.346666666666668" type="line"/>
      <point x="71.80000000000001" y="0.0" type="line"/>
    </contour>
    <contour>
      <point x="1205.0933333333332" y="948.5866666666667" type="line"/>
      <point x="1217.3333333333333" y="1024.0" type="line"/>
      <point x="267.35999999999996" y="1024.0" type="line"/>
      <point x="244.67999999999998" y="1028.3733333333334" type="line"/>
      <point x="19.093333333333334" y="988.2933333333333" type="line"/>
      <point x="19.093333333333334" y="967.5733333333334" type="line"/>
      <point x="233.30666666666664" y="940.8533333333334" type="line"/>
      <point x="278.6933333333333" y="948.5866666666667" type="line"/>
    </contour>
    <contour>
      <point x="863.4933333333333" y="38.82666666666667" type="line"/>
      <point x="863.4933333333333" y="1140.2533333333333" type="line" smooth="yes"/>
      <point x="863.4933333333333" y="1330.2266666666667"/>
      <point x="943.7066666666666" y="1436.56"/>
      <point x="1087.8" y="1436.56" type="curve" smooth="yes"/>
      <point x="1215.4266666666667" y="1436.56"/>
      <point x="1305.6" y="1317.1333333333332"/>
      <point x="1320.6933333333334" y="1317.1333333333332" type="curve" smooth="yes"/>
      <point x="1361.2933333333333" y="1317.1333333333332"/>
      <point x="1385.6399999999999" y="1350.8533333333332"/>
      <point x="1385.6399999999999" y="1385.0666666666666" type="curve" smooth="yes"/>
      <point x="1385.6399999999999" y="1445.6666666666667"/>
      <point x="1309.5066666666667" y="1484.0"/>
      <point x="1187.2" y="1484.0" type="curve" smooth="yes"/>
      <point x="944.6533333333333" y="1484.0"/>
      <point x="744.3066666666666" y="1325.8400000000001"/>
      <point x="744.3066666666666" y="1031.9199999999998" type="curve" smooth="yes"/>
      <point x="744.3066666666666" y="38.82666666666667" type="line"/>
      <point x="597.5466666666666" y="16.346666666666668" type="line"/>
      <point x="597.5466666666666" y="0.0" type="line"/>
      <point x="1027.7466666666667" y="0.0" type="line"/>
      <point x="1027.7466666666667" y="16.346666666666668" type="line"/>
    </contour>
  </outline>
</glyph>
<glyph name="Euro.lf" format="2">
  <advance width="1388.4"/>
  <outline>
    <contour>
      <point x="1005.9333333333333" y="584.24" type="line"/>
      <point x="98.25333333333333" y="584.24" type="line"/>
      <point x="98.25333333333333" y="538.1333333333333" type="line"/>
      <point x="1005.9333333333333" y="538.1333333333333" type="line"/>
    </contour>
    <contour>
      <point x="1005.9333333333333" y="902.24" type="line"/>
      <point x="98.25333333333333" y="902.24" type="line"/>
      <point x="98.25333333333333" y="855.76" type="line"/>
      <point x="1005.9333333333333" y="855.76" type="line"/>
    </contour>
    <contour>
      <point x="917.6933333333333" y="1417.0266666666666" type="curve" smooth="yes"/>
      <point x="1113.2533333333333" y="1417.0266666666666"/>
      <point x="1191.5066666666667" y="1231.08"/>
      <point x="1233.7333333333333" y="1231.08" type="curve" smooth="yes"/>
      <point x="1278.4266666666667" y="1231.08"/>
      <point x="1301.4" y="1260.32"/>
      <point x="1301.4" y="1294.16" type="curve" smooth="yes"/>
      <point x="1301.4" y="1368.1866666666665"/>
      <point x="1164.6399999999999" y="1450.0"/>
      <point x="940.7066666666667" y="1450.0" type="curve" smooth="yes"/>
      <point x="556.2533333333333" y="1450.0"/>
      <point x="316.9066666666667" y="1155.16"/>
      <point x="316.9066666666667" y="710.52" type="curve" smooth="yes"/>
      <point x="316.9066666666667" y="241.88"/>
      <point x="529.4933333333333" y="-20.0"/>
      <point x="914.7066666666666" y="-20.0" type="curve" smooth="yes"/>
      <point x="1075.6133333333335" y="-20.0"/>
      <point x="1278.52" y="30.36"/>
      <point x="1278.52" y="113.54666666666667" type="curve" smooth="yes"/>
      <point x="1278.52" y="145.38666666666666"/>
      <point x="1256.5466666666666" y="170.49333333333334"/>
      <point x="1214.8533333333332" y="170.49333333333334" type="curve" smooth="yes"/>
      <point x="1164.8533333333335" y="170.49333333333334"/>
      <point x="1082.64" y="15.453333333333331"/>
      <point x="898.0933333333334" y="15.079999999999998" type="curve" smooth="yes"/>
      <point x="624.9733333333332" y="14.706666666666665"/>
      <point x="449.5733333333333" y="255.29333333333332"/>
      <point x="449.5733333333333" y="748.84" type="curve" smooth="yes"/>
      <point x="449.5733333333333" y="1186.9733333333334"/>
      <point x="634.36" y="1417.0266666666666"/>
    </contour>
  </outline>
</glyph>
<glyph name="colonmonetary.lf.1" format="2">
  <advance width="1142.7733333333333"/>
  <outline>
    <contour>
      <point x="644.44" y="1415.9066666666668" type="curve" smooth="yes"/>
      <point x="849.8533333333334" y="1415.9066666666668"/>
      <point x="924.5066666666667" y="1229.5866666666668"/>
      <point x="966.7333333333333" y="1229.5866666666668" type="curve" smooth="yes"/>
      <point x="1010.68" y="1229.5866666666668"/>
      <point x="1035.52" y="1261.44"/>
      <point x="1035.52" y="1296.7733333333333" type="curve" smooth="yes"/>
      <point x="1035.52" y="1363.8533333333332"/>
      <point x="916.8933333333333" y="1450.0"/>
      <point x="683.4133333333333" y="1450.0" type="curve" smooth="yes"/>
      <point x="314.05333333333334" y="1450.0"/>
      <point x="113.25333333333334" y="1119.4933333333333"/>
      <point x="113.25333333333334" y="661.7333333333333" type="curve" smooth="yes"/>
      <point x="113.25333333333334" y="211.20937771345876"/>
      <point x="335.37333333333333" y="-20.0"/>
      <point x="610.5733333333334" y="-20.0" type="curve" smooth="yes"/>
      <point x="783.2933333333333" y="-20.0"/>
      <point x="898.8684696816574" y="42.11582222460605"/>
      <point x="1065.52" y="245.57333333333335" type="curve"/>
      <point x="1050.5333333333333" y="260.06666666666666" type="line"/>
      <point x="923.3210986471098" y="124.70776531377658"/>
      <point x="810.5466666666666" y="84.09333333333333"/>
      <point x="660.3733333333333" y="84.09333333333333" type="curve" smooth="yes"/>
      <point x="416.8666666666667" y="84.09333333333333"/>
      <point x="222.82666666666665" y="303.2739158576052"/>
      <point x="222.82666666666665" y="714.1333333333333" type="curve" smooth="yes"/>
      <point x="222.82666666666665" y="1156.1733333333334"/>
      <point x="377.1066666666667" y="1415.9066666666668"/>
    </contour>
    <contour>
      <point x="694.8933333333333" y="1429.9066666666665" type="line"/>
      <point x="741.3866666666667" y="1638.0" type="line"/>
      <point x="692.6533333333333" y="1638.0" type="line"/>
      <point x="646.1600000000001" y="1429.9066666666665" type="line"/>
    </contour>
    <contour>
      <point x="368.08" y="93.13333333333334" type="line"/>
      <point x="301.4533333333333" y="-208.0" type="line"/>
      <point x="350.18666666666667" y="-208.0" type="line"/>
      <point x="416.81333333333333" y="93.13333333333334" type="line"/>
    </contour>
    <contour>
      <point x="877.8933333333333" y="1391.5066666666667" type="line"/>
      <point x="932.2666666666667" y="1638.0" type="line"/>
      <point x="883.5333333333333" y="1638.0" type="line"/>
      <point x="829.16" y="1391.5066666666667" type="line"/>
    </contour>
    <contour>
      <point x="549.56" y="49.26666666666666" type="line"/>
      <point x="492.3333333333333" y="-208.0" type="line"/>
      <point x="542.0666666666667" y="-208.0" type="line"/>
      <point x="599.2933333333334" y="49.26666666666666" type="line"/>
    </contour>
  </outline>
</glyph>
<glyph name="dollar.lf" format="2">
  <advance width="1058.12"/>
  <outline>
    <contour>
      <point x="426.15999999999997" y="-208.0" type="line"/>
      <point x="473.52000000000004" y="-208.0" type="line"/>
      <point x="473.52000000000004" y="1638.0" type="line"/>
      <point x="426.15999999999997" y="1638.0" type="line"/>
    </contour>
    <contour>
      <point x="651.76" y="-208.0" type="line"/>
      <point x="699.12" y="-208.0" type="line"/>
      <point x="699.12" y="1638.0" type="line"/>
      <point x="651.76" y="1638.0" type="line"/>
    </contour>
    <contour>
      <point x="450.33333333333337" y="-20.0" type="curve" smooth="yes"/>
      <point x="745.0133333333333" y="-20.0"/>
      <point x="965.9866666666666" y="143.28923076923076"/>
      <point x="965.9866666666666" y="410.6933333333333" type="curve" smooth="yes"/>
      <point x="965.9866666666666" y="626.1866666666666"/>
      <point x="865.0133333333333" y="737.5333333333333"/>
      <point x="559.6533333333333" y="823.16" type="curve" smooth="yes"/>
      <point x="254.29333333333332" y="908.7866666666666"/>
      <point x="195.13333333333333" y="990.4266666666667"/>
      <point x="195.13333333333333" y="1135.1200000000001" type="curve" smooth="yes"/>
      <point x="195.13333333333333" y="1295.8262745098039"/>
      <point x="313.16" y="1416.6533333333334"/>
      <point x="533.8133333333333" y="1416.6533333333334" type="curve" smooth="yes"/>
      <point x="734.9733333333334" y="1416.6533333333334"/>
      <point x="823.36" y="1234.4666666666665"/>
      <point x="862.4666666666666" y="1234.4666666666665" type="curve" smooth="yes"/>
      <point x="903.6666666666666" y="1234.4666666666665"/>
      <point x="926.76" y="1265.4399999999998"/>
      <point x="926.76" y="1301.2666666666667" type="curve" smooth="yes"/>
      <point x="926.76" y="1364.0800000000002"/>
      <point x="809.1333333333333" y="1450.0"/>
      <point x="566.5333333333333" y="1450.0" type="curve" smooth="yes"/>
      <point x="280.5866666666667" y="1450.0"/>
      <point x="107.01333333333334" y="1288.7866666666666"/>
      <point x="107.01333333333334" y="1088.0800000000002" type="curve" smooth="yes"/>
      <point x="107.01333333333334" y="894.7199999999999"/>
      <point x="204.98666666666668" y="787.4933333333333"/>
      <point x="506.23999999999995" y="706.6133333333333" type="curve" smooth="yes"/>
      <point x="806.8666666666667" y="625.7333333333333"/>
      <point x="876.8666666666667" y="525.3333333333333"/>
      <point x="876.8666666666667" y="364.93333333333334" type="curve" smooth="yes"/>
      <point x="876.8666666666667" y="129.48524251805986"/>
      <point x="694.0666666666667" y="11.719999999999999"/>
      <point x="473.7866666666667" y="11.719999999999999" type="curve" smooth="yes"/>
      <point x="260.77333333333337" y="11.719999999999999"/>
      <point x="177.74666666666667" y="193.64"/>
      <point x="143.04" y="193.64" type="curve" smooth="yes"/>
      <point x="97.70666666666666" y="193.64"/>
      <point x="72.73333333333332" y="162.66666666666669"/>
      <point x="72.73333333333332" y="125.58666666666667" type="curve" smooth="yes"/>
      <point x="72.73333333333332" y="25.163517382413087"/>
      <point x="271.15999999999997" y="-20.0"/>
    </contour>
  </outline>
</glyph>
<glyph name="franc.lf" format="2">
  <advance width="1246.7333333333331"/>
  <outline>
    <contour>
      <point x="1106.9733333333334" y="1478.6" type="line"/>
      <point x="1034.4133333333334" y="1430.0" type="line"/>
      <point x="395.76" y="1430.0" type="line"/>
      <point x="395.76" y="1392.9066666666665" type="line"/>
      <point x="1084.6133333333332" y="1392.9066666666665" type="line"/>
      <point x="1018.4266666666666" y="1411.6399999999999" type="line"/>
      <point x="1172.3733333333332" y="1058.1866666666667" type="line"/>
      <point x="1189.7333333333331" y="1063.9333333333332" type="line"/>
      <point x="1112.84" y="1478.6" type="line"/>
    </contour>
    <contour>
      <point x="907.8666666666667" y="584.24" type="line"/>
      <point x="107.73333333333332" y="584.24" type="line"/>
      <point x="107.73333333333332" y="538.1333333333333" type="line"/>
      <point x="907.8666666666667" y="538.1333333333333" type="line"/>
    </contour>
    <contour>
      <point x="907.8666666666667" y="902.24" type="line"/>
      <point x="107.73333333333332" y="902.24" type="line"/>
      <point x="107.73333333333332" y="855.76" type="line"/>
      <point x="907.8666666666667" y="855.76" type="line"/>
    </contour>
    <contour>
      <point x="171.30666666666667" y="1430.0" type="line"/>
      <point x="171.30666666666667" y="1412.0266666666669" type="line"/>
      <point x="368.74666666666667" y="1377.56" type="line"/>
      <point x="368.74666666666667" y="52.44" type="line"/>
      <point x="171.30666666666667" y="17.973333333333336" type="line"/>
      <point x="171.30666666666667" y="0.0" type="line"/>
      <point x="688.24" y="0.0" type="line"/>
      <point x="688.24" y="17.973333333333336" type="line"/>
      <point x="491.4266666666666" y="52.44" type="line"/>
      <point x="491.4266666666666" y="1430.0" type="line"/>
    </contour>
  </outline>
</glyph>
<glyph name="numbersign.lf" format="2">
  <advance width="1313.0666666666666"/>
  <outline>
    <contour>
      <point x="715.4266666666667" y="0.0" type="line"/>
      <point x="1033.4266666666667" y="1430.0" type="line"/>
      <point x="982.9466666666667" y="1430.0" type="line"/>
      <point x="664.9466666666667" y="0.0" type="line"/>
    </contour>
    <contour>
      <point x="332.71999999999997" y="0.0" type="line"/>
      <point x="650.72" y="1430.0" type="line"/>
      <point x="601.24" y="1430.0" type="line"/>
      <point x="283.24" y="0.0" type="line"/>
    </contour>
    <contour>
      <point x="1159.3066666666666" y="531.7733333333333" type="line"/>
      <point x="66.0" y="531.7733333333333" type="line"/>
      <point x="66.0" y="484.92" type="line"/>
      <point x="1159.3066666666666" y="484.92" type="line"/>
    </contour>
    <contour>
      <point x="1246.32" y="951.08" type="line"/>
      <point x="159.36" y="951.08" type="line"/>
      <point x="159.36" y="904.2266666666666" type="line"/>
      <point x="1246.32" y="904.2266666666666" type="line"/>
    </contour>
  </outline>
</glyph>
<glyph name="three.lf" format="2">
  <advance width="1019.6266666666666"/>
  <outline>
    <contour>
      <point x="313.15999999999997" y="714.6" type="line"/>
      <point x="375.0133333333333" y="735.2666666666667" type="line" smooth="yes"/>
      <point x="641.9333333333334" y="818.7066666666667"/>
      <point x="798.9466666666666" y="680.6133333333333"/>
      <point x="798.9466666666666" y="451.6" type="curve" smooth="yes"/>
      <point x="798.9466666666666" y="213.89333333333335"/>
      <point x="640.9066666666666" y="29.226666666666667"/>
      <point x="421.1333333333333" y="29.226666666666667" type="curve" smooth="yes"/>
      <point x="269.64000000000004" y="29.226666666666667"/>
      <point x="188.54666666666668" y="150.49333333333334"/>
      <point x="141.2" y="150.49333333333334" type="curve" smooth="yes"/>
      <point x="101.86666666666667" y="150.49333333333334"/>
      <point x="74.01333333333332" y="120.65333333333335"/>
      <point x="74.01333333333332" y="80.55999999999999" type="curve" smooth="yes"/>
      <point x="74.01333333333332" y="24.106666666666666"/>
      <point x="126.98666666666666" y="-20.0"/>
      <point x="292.6533333333333" y="-20.0" type="curve" smooth="yes"/>
      <point x="672.1600000000001" y="-20.0"/>
      <point x="930.7466666666667" y="196.62666666666667"/>
      <point x="930.7466666666667" y="475.9866666666667" type="curve" smooth="yes"/>
      <point x="930.7466666666667" y="708.8933333333333"/>
      <point x="757.24" y="845.8933333333333"/>
      <point x="501.92" y="811.6" type="curve"/>
      <point x="495.5866666666667" y="798.2533333333333" type="line"/>
      <point x="718.96" y="893.0133333333333"/>
      <point x="821.7466666666666" y="1007.12"/>
      <point x="821.7466666666666" y="1161.24" type="curve" smooth="yes"/>
      <point x="821.7466666666666" y="1332.2533333333333"/>
      <point x="707.1466666666668" y="1450.0"/>
      <point x="497.5466666666667" y="1450.0" type="curve" smooth="yes"/>
      <point x="282.96000000000004" y="1450.0"/>
      <point x="142.35999999999999" y="1319.5333333333333"/>
      <point x="89.86666666666666" y="1076.5733333333333" type="curve"/>
      <point x="114.58666666666666" y="1072.4533333333334" type="line"/>
      <point x="169.6" y="1283.3733333333334"/>
      <point x="288.8666666666667" y="1363.4933333333333"/>
      <point x="449.0133333333333" y="1363.4933333333333" type="curve" smooth="yes"/>
      <point x="616.28" y="1363.4933333333333"/>
      <point x="700.9066666666666" y="1260.3333333333335"/>
      <point x="700.9066666666666" y="1127.4266666666667" type="curve" smooth="yes"/>
      <point x="700.9066666666666" y="965.4133333333333"/>
      <point x="615.254853681073" y="854.4752815516948"/>
      <point x="304.4133333333333" y="746.0666666666667" type="curve"/>
    </contour>
  </outline>
</glyph>
<glyph name="uni0302_gravecomb.case" format="2">
  <anchor x="0.0" y="1430.0" name="_UCtop"/>
  <anchor x="0.0" y="1870.0" name="UCtop"/>
  <outline>
    <contour>
      <point x="-242.73333333333332" y="1741.0" type="line"/>
      <point x="-407.6666666666667" y="2008.0" type="line"/>
      <point x="-567.6800000000001" y="2008.0" type="line"/>
      <point x="-567.6800000000001" y="1996.2533333333333" type="line"/>
      <point x="-268.58666666666664" y="1741.0" type="line"/>
    </contour>
    <contour>
      <point x="29.599999999999998" y="1797.7866666666666" type="line"/>
      <point x="-30.6" y="1797.7866666666666" type="line"/>
      <point x="272.49333333333334" y="1544.0" type="line"/>
      <point x="304.09333333333336" y="1544.0" type="line"/>
      <point x="47.946666666666665" y="1870.0" type="line"/>
      <point x="-46.946666666666665" y="1870.0" type="line"/>
      <point x="-304.09333333333336" y="1544.0" type="line"/>
      <point x="-272.49333333333334" y="1544.0" type="line"/>
    </contour>
  </outline>
</glyph>
<glyph name="uni0302_hookabovecomb.case" format="2">
  <anchor x="0.0" y="1430.0" name="_UCtop"/>
  <outline>
    <contour>
      <point x="29.599999999999998" y="1797.7866666666666" type="line"/>
      <point x="-30.6" y="1797.7866666666666" type="line"/>
      <point x="272.49333333333334" y="1544.0" type="line"/>
      <point x="304.09333333333336" y="1544.0" type="line"/>
      <point x="47.946666666666665" y="1870.0" type="line"/>
      <point x="-46.946666666666665" y="1870.0" type="line"/>
      <point x="-304.09333333333336" y="1544.0" type="line"/>
      <point x="-272.49333333333334" y="1544.0" type="line"/>
    </contour>
    <contour>
      <point x="239.46666666666667" y="1774.3600000000001" type="curve"/>
      <point x="250.84" y="1750.1333333333334" type="line"/>
      <point x="414.41333333333336" y="1802.0133333333333"/>
      <point x="472.16" y="1861.5066666666667"/>
      <point x="472.16" y="1944.3733333333332" type="curve" smooth="yes"/>
      <point x="472.16" y="2033.6266666666666"/>
      <point x="416.41333333333336" y="2099.1200000000003"/>
      <point x="177.57333333333332" y="2114.2400000000002" type="curve"/>
      <point x="161.21333333333334" y="2020.5466666666669" type="line"/>
      <point x="348.71999999999997" y="2011.9199999999998"/>
      <point x="401.24" y="1975.2933333333333"/>
      <point x="401.24" y="1914.0266666666666" type="curve" smooth="yes"/>
      <point x="401.24" y="1853.88"/>
      <point x="355.09333333333336" y="1813.3733333333332"/>
    </contour>
  </outline>
</glyph>
<glyph name="uni0304.case" format="2">
  <anchor x="0.0" y="1430.0" name="_UCtop"/>
  <anchor x="0.0" y="1870.0" name="UCtop"/>
  <outline>
    <contour>
      <point x="-275.34666666666664" y="1676.8933333333334" type="line"/>
      <point x="275.34666666666664" y="1676.8933333333334" type="line"/>
      <point x="275.34666666666664" y="1738.1066666666668" type="line"/>
      <point x="-275.34666666666664" y="1738.1066666666668" type="line"/>
    </contour>
  </outline>
</glyph>
<glyph name="uni0306_acutecomb.case" format="2">
  <anchor x="0.0" y="1430.0" name="_UCtop"/>
  <outline>
    <contour>
      <point x="-14.24" y="1721.0" type="line"/>
      <point x="13.24" y="1721.0" type="line"/>
      <point x="293.5733333333333" y="1993.2533333333333" type="line"/>
      <point x="293.5733333333333" y="2004.0" type="line"/>
      <point x="146.44" y="2004.0" type="line"/>
    </contour>
    <contour>
      <point x="0.0" y="1589.8133333333333" type="curve" smooth="yes"/>
      <point x="-122.36" y="1589.8133333333333"/>
      <point x="-201.74666666666667" y="1627.0666666666666"/>
      <point x="-241.62666666666667" y="1745.7333333333333" type="curve"/>
      <point x="-270.47999999999996" y="1745.7333333333333" type="line"/>
      <point x="-209.36" y="1549.0"/>
      <point x="-140.98666666666668" y="1503.0"/>
      <point x="0.0" y="1503.0" type="curve" smooth="yes"/>
      <point x="140.98666666666668" y="1503.0"/>
      <point x="209.36" y="1549.0"/>
      <point x="270.47999999999996" y="1745.7333333333333" type="curve"/>
      <point x="241.62666666666667" y="1745.7333333333333" type="line"/>
      <point x="201.74666666666667" y="1626.6933333333334"/>
      <point x="122.36" y="1589.8133333333333"/>
    </contour>
  </outline>
</glyph>
<glyph name="uni0307.case" format="2">
  <anchor x="0.0" y="1430.0" name="_UCtop"/>
  <anchor x="0.0" y="1707.0" name="_mid"/>
  <anchor x="0.0" y="1782.0" name="UCtop"/>
  <outline>
    <contour>
      <point x="0.0" y="1620.0533333333333" type="curve" smooth="yes"/>
      <point x="54.093333333333334" y="1620.0533333333333"/>
      <point x="87.69333333333334" y="1660.5333333333333"/>
      <point x="87.69333333333334" y="1707.0" type="curve" smooth="yes"/>
      <point x="87.69333333333334" y="1753.0933333333335"/>
      <point x="54.093333333333334" y="1793.9466666666667"/>
      <point x="0.0" y="1793.9466666666667" type="curve" smooth="yes"/>
      <point x="-54.093333333333334" y="1793.9466666666667"/>
      <point x="-87.69333333333334" y="1753.0933333333335"/>
      <point x="-87.69333333333334" y="1707.0" type="curve" smooth="yes"/>
      <point x="-87.69333333333334" y="1660.5333333333333"/>
      <point x="-54.093333333333334" y="1620.0533333333333"/>
    </contour>
  </outline>
</glyph>
<glyph name="uni20A6.1" format="2">
  <advance width="1200.0"/>
  <outline>
    <contour>
      <point x="975.88" y="213.16000000000003" type="line"/>
      <point x="355.53333333333336" y="1430.0" type="line"/>
      <point x="40.586666666666666" y="1430.0" type="line"/>
      <point x="40.586666666666666" y="1412.4" type="line"/>
      <point x="230.98666666666665" y="1380.6666666666665" type="line"/>
      <point x="230.98666666666665" y="46.346666666666664" type="line"/>
      <point x="53.33333333333333" y="17.6" type="line"/>
      <point x="53.33333333333333" y="0.0" type="line"/>
      <point x="448.0933333333333" y="0.0" type="line"/>
      <point x="448.0933333333333" y="17.6" type="line"/>
      <point x="270.32" y="46.346666666666664" type="line"/>
      <point x="270.32" y="1384.76" type="line"/>
      <point x="251.84" y="1383.7733333333333" type="line"/>
      <point x="973.1466666666668" y="-17.76" type="line"/>
      <point x="995.6266666666667" y="-17.76" type="line"/>
      <point x="995.6266666666667" y="1383.6533333333334" type="line"/>
      <point x="1173.2800000000002" y="1412.4" type="line"/>
      <point x="1173.2800000000002" y="1430.0" type="line"/>
      <point x="778.52" y="1430.0" type="line"/>
      <point x="778.52" y="1412.4" type="line"/>
      <point x="956.2933333333334" y="1383.6533333333334" type="line"/>
      <point x="956.2933333333334" y="154.88" type="line"/>
    </contour>
    <contour>
      <point x="252.84" y="902.24" type="line"/>
      <point x="20.586666666666666" y="902.24" type="line"/>
      <point x="20.586666666666666" y="855.76" type="line"/>
      <point x="252.84" y="855.76" type="line"/>
    </contour>
    <contour>
      <point x="252.84" y="584.24" type="line"/>
      <point x="20.586666666666666" y="584.24" type="line"/>
      <point x="20.586666666666666" y="538.1333333333333" type="line"/>
      <point x="252.84" y="538.1333333333333" type="line"/>
    </contour>
    <contour>
      <point x="976.4133333333333" y="855.76" type="line"/>
      <point x="1192.04" y="855.76" type="line"/>
      <point x="1192.04" y="902.24" type="line"/>
      <point x="976.4133333333333" y="902.24" type="line"/>
    </contour>
    <contour>
      <point x="976.4133333333333" y="538.1333333333333" type="line"/>
      <point x="1192.04" y="538.1333333333333" type="line"/>
      <point x="1192.04" y="584.24" type="line"/>
      <point x="976.4133333333333" y="584.24" type="line"/>
    </contour>
  </outline>
</glyph>
<glyph name="uni20A9.1" format="2">
  <advance width="1200.0"/>
  <outline>
    <contour>
      <point x="588.1066666666667" y="1264.6" type="line"/>
      <point x="926.4133333333334" y="-17.759999999999998" type="line"/>
      <point x="952.4933333333333" y="-17.759999999999998" type="line"/>
      <point x="1123.9866666666665" y="1383.0266666666666" type="line"/>
      <point x="1249.12" y="1409.7733333333333" type="line"/>
      <point x="1249.12" y="1430.0" type="line"/>
      <point x="955.0133333333333" y="1430.0" type="line"/>
      <point x="955.0133333333333" y="1409.7733333333333" type="line"/>
      <point x="1081.2666666666667" y="1383.4" type="line"/>
      <point x="946.7333333333333" y="243.38666666666666" type="line"/>
      <point x="967.4666666666667" y="243.38666666666666" type="line"/>
      <point x="652.0133333333333" y="1448.3866666666668" type="line"/>
      <point x="625.3066666666666" y="1448.3866666666668" type="line"/>
      <point x="296.04" y="234.93333333333334" type="line"/>
      <point x="321.0" y="234.93333333333334" type="line"/>
      <point x="187.57333333333332" y="1382.28" type="line"/>
      <point x="316.7066666666667" y="1409.4" type="line"/>
      <point x="316.7066666666667" y="1430.0" type="line"/>
      <point x="-48.74666666666667" y="1430.0" type="line"/>
      <point x="-48.74666666666667" y="1409.4" type="line"/>
      <point x="74.01333333333334" y="1382.28" type="line"/>
      <point x="241.52" y="-17.759999999999998" type="line"/>
      <point x="267.34666666666664" y="-17.759999999999998" type="line"/>
      <point x="611.64" y="1268.9866666666667" type="line"/>
    </contour>
    <contour>
      <point x="1004.3733333333333" y="538.1333333333333" type="line"/>
      <point x="1238.0" y="538.1333333333333" type="line"/>
      <point x="1238.0" y="584.24" type="line"/>
      <point x="1004.3733333333333" y="584.24" type="line"/>
    </contour>
    <contour>
      <point x="210.81333333333333" y="584.24" type="line"/>
      <point x="-37.99999999999999" y="584.24" type="line"/>
      <point x="-37.99999999999999" y="538.1333333333333" type="line"/>
      <point x="210.81333333333333" y="538.1333333333333" type="line"/>
    </contour>
    <contour>
      <point x="1037.6266666666666" y="855.76" type="line"/>
      <point x="1238.0" y="855.76" type="line"/>
      <point x="1238.0" y="902.24" type="line"/>
      <point x="1037.6266666666666" y="902.24" type="line"/>
    </contour>
    <contour>
      <point x="210.81333333333333" y="902.24" type="line"/>
      <point x="-37.99999999999999" y="902.24" type="line"/>
      <point x="-37.99999999999999" y="855.76" type="line"/>
      <point x="210.81333333333333" y="855.76" type="line"/>
    </contour>
  </outline>
</glyph>
<glyph name="uni20BA.lf" format="2">
  <advance width="1247.9333333333332"/>
  <outline>
    <contour>
      <point x="1085.32" y="-53.10666666666666" type="line"/>
      <point x="1192.3066666666666" y="386.68" type="line"/>
      <point x="1176.1999999999998" y="391.8" type="line"/>
      <point x="987.6533333333333" y="21.48" type="line"/>
      <point x="1045.2133333333331" y="37.093333333333334" type="line"/>
      <point x="359.9866666666667" y="37.093333333333334" type="line"/>
      <point x="359.9866666666667" y="0.0" type="line"/>
      <point x="996.5066666666668" y="0.0" type="line"/>
      <point x="1076.3333333333335" y="-53.10666666666666" type="line"/>
    </contour>
    <contour>
      <point x="112.10666666666667" y="305.90666666666664" type="line"/>
      <point x="371.6666666666667" y="446.36" type="line"/>
      <point x="433.44" y="465.08000000000004" type="line"/>
      <point x="861.6933333333333" y="694.0666666666667" type="line"/>
      <point x="861.6933333333333" y="743.5466666666666" type="line"/>
      <point x="433.44" y="514.5600000000001" type="line"/>
      <point x="371.6666666666667" y="496.2133333333333" type="line"/>
      <point x="112.10666666666667" y="355.38666666666666" type="line"/>
    </contour>
    <contour>
      <point x="112.10666666666667" y="623.16" type="line"/>
      <point x="371.6666666666667" y="763.6133333333333" type="line"/>
      <point x="433.44" y="781.96" type="line"/>
      <point x="861.6933333333333" y="1011.32" type="line"/>
      <point x="861.6933333333333" y="1060.8" type="line"/>
      <point x="433.44" y="831.8133333333333" type="line"/>
      <point x="371.6666666666667" y="813.0933333333334" type="line"/>
      <point x="112.10666666666667" y="672.64" type="line"/>
    </contour>
    <contour>
      <point x="137.16" y="0.0" type="line"/>
      <point x="457.28" y="0.0" type="line"/>
      <point x="457.28" y="1377.56" type="line"/>
      <point x="654.0933333333332" y="1412.0266666666669" type="line"/>
      <point x="654.0933333333332" y="1430.0" type="line"/>
      <point x="137.16" y="1430.0" type="line"/>
      <point x="137.16" y="1412.0266666666669" type="line"/>
      <point x="334.6" y="1377.56" type="line"/>
      <point x="334.6" y="52.44" type="line"/>
      <point x="137.16" y="17.973333333333336" type="line"/>
    </contour>
  </outline>
</glyph>
<glyph name="yen.lf" format="2">
  <advance width="1408.3333333333335"/>
  <outline>
    <contour>
      <point x="1163.0800000000002" y="584.24" type="line"/>
      <point x="303.61333333333334" y="584.24" type="line"/>
      <point x="303.61333333333334" y="538.1333333333333" type="line"/>
      <point x="1163.0800000000002" y="538.1333333333333" type="line"/>
    </contour>
    <contour>
      <point x="1163.0800000000002" y="902.24" type="line"/>
      <point x="303.61333333333334" y="902.24" type="line"/>
      <point x="303.61333333333334" y="855.76" type="line"/>
      <point x="1163.0800000000002" y="855.76" type="line"/>
    </contour>
    <contour>
      <point x="794.56" y="890.8666666666667" type="line"/>
      <point x="1172.6933333333334" y="1383.28" type="line"/>
      <point x="1353.5866666666668" y="1412.4" type="line"/>
      <point x="1353.5866666666668" y="1430.0" type="line"/>
      <point x="947.8533333333334" y="1430.0" type="line"/>
      <point x="947.8533333333334" y="1412.4" type="line"/>
      <point x="1128.12" y="1383.6533333333334" type="line"/>
      <point x="768.84" y="913.1066666666667" type="line"/>
      <point x="793.5466666666666" y="910.6" type="line"/>
      <point x="379.64" y="1383.28" type="line"/>
      <point x="563.0133333333333" y="1412.4" type="line"/>
      <point x="563.0133333333333" y="1430.0" type="line"/>
      <point x="44.0" y="1430.0" type="line"/>
      <point x="44.0" y="1412.4" type="line"/>
      <point x="223.14666666666665" y="1382.9066666666668" type="line"/>
      <point x="671.88" y="888.4933333333333" type="line"/>
      <point x="671.88" y="52.44" type="line"/>
      <point x="474.44" y="17.973333333333336" type="line"/>
      <point x="474.44" y="0.0" type="line"/>
      <point x="991.3733333333333" y="0.0" type="line"/>
      <point x="991.3733333333333" y="17.973333333333336" type="line"/>
      <point x="794.56" y="52.44" type="line"/>
    </contour>
  </outline>
</glyph>
<glyph name="zero.lf" format="2">
  <advance width="1247.6666666666667"/>
  <outline>
    <contour>
      <point x="626.8933333333333" y="14.093333333333332" type="curve" smooth="yes"/>
      <point x="382.0933333333333" y="14.093333333333332"/>
      <point x="233.44" y="285.47999999999996"/>
      <point x="233.44" y="747.0" type="curve" smooth="yes"/>
      <point x="233.44" y="1168.1466666666668"/>
      <point x="378.72" y="1415.9066666666668"/>
      <point x="620.1466666666666" y="1415.9066666666668" type="curve" smooth="yes"/>
      <point x="864.9466666666667" y="1415.9066666666668"/>
      <point x="1013.6" y="1144.52"/>
      <point x="1013.6" y="683.0" type="curve" smooth="yes"/>
      <point x="1013.6" y="261.8533333333333"/>
      <point x="868.32" y="14.093333333333332"/>
    </contour>
    <contour>
      <point x="624.64" y="1450.0" type="curve" smooth="yes"/>
      <point x="313.4533333333333" y="1450.0"/>
      <point x="104.13333333333334" y="1151.6266666666668"/>
      <point x="104.13333333333334" y="713.0" type="curve" smooth="yes"/>
      <point x="104.13333333333334" y="275.0"/>
      <point x="313.09333333333336" y="-20.0"/>
      <point x="622.4" y="-20.0" type="curve" smooth="yes"/>
      <point x="933.5866666666667" y="-20.0"/>
      <point x="1143.5333333333333" y="278.37333333333333"/>
      <point x="1143.5333333333333" y="717.0" type="curve" smooth="yes"/>
      <point x="1143.5333333333333" y="1155.0"/>
      <point x="933.9466666666667" y="1450.0"/>
    </contour>
  </outline>
</glyph>
